%TF.GenerationSoftware,KiCad,Pcbnew,7.0.6*%
%TF.CreationDate,2023-07-14T02:37:10+02:00*%
%TF.ProjectId,rrr,7272722e-6b69-4636-9164-5f7063625858,rev?*%
%TF.SameCoordinates,Original*%
%TF.FileFunction,Paste,Bot*%
%TF.FilePolarity,Positive*%
%FSLAX46Y46*%
G04 Gerber Fmt 4.6, Leading zero omitted, Abs format (unit mm)*
G04 Created by KiCad (PCBNEW 7.0.6) date 2023-07-14 02:37:10*
%MOMM*%
%LPD*%
G01*
G04 APERTURE LIST*
G04 Aperture macros list*
%AMRoundRect*
0 Rectangle with rounded corners*
0 $1 Rounding radius*
0 $2 $3 $4 $5 $6 $7 $8 $9 X,Y pos of 4 corners*
0 Add a 4 corners polygon primitive as box body*
4,1,4,$2,$3,$4,$5,$6,$7,$8,$9,$2,$3,0*
0 Add four circle primitives for the rounded corners*
1,1,$1+$1,$2,$3*
1,1,$1+$1,$4,$5*
1,1,$1+$1,$6,$7*
1,1,$1+$1,$8,$9*
0 Add four rect primitives between the rounded corners*
20,1,$1+$1,$2,$3,$4,$5,0*
20,1,$1+$1,$4,$5,$6,$7,0*
20,1,$1+$1,$6,$7,$8,$9,0*
20,1,$1+$1,$8,$9,$2,$3,0*%
G04 Aperture macros list end*
%ADD10RoundRect,0.237500X-0.237500X0.300000X-0.237500X-0.300000X0.237500X-0.300000X0.237500X0.300000X0*%
%ADD11R,0.425000X0.400000*%
%ADD12R,1.150000X0.950000*%
%ADD13R,0.800000X0.480000*%
%ADD14RoundRect,0.250000X0.475000X-0.337500X0.475000X0.337500X-0.475000X0.337500X-0.475000X-0.337500X0*%
%ADD15RoundRect,0.150000X-0.587500X-0.150000X0.587500X-0.150000X0.587500X0.150000X-0.587500X0.150000X0*%
%ADD16RoundRect,0.160000X0.197500X0.160000X-0.197500X0.160000X-0.197500X-0.160000X0.197500X-0.160000X0*%
%ADD17RoundRect,0.160000X-0.197500X-0.160000X0.197500X-0.160000X0.197500X0.160000X-0.197500X0.160000X0*%
%ADD18RoundRect,0.160000X-0.160000X0.197500X-0.160000X-0.197500X0.160000X-0.197500X0.160000X0.197500X0*%
%ADD19RoundRect,0.237500X0.300000X0.237500X-0.300000X0.237500X-0.300000X-0.237500X0.300000X-0.237500X0*%
%ADD20RoundRect,0.237500X-0.287500X-0.237500X0.287500X-0.237500X0.287500X0.237500X-0.287500X0.237500X0*%
%ADD21RoundRect,0.160000X0.160000X-0.197500X0.160000X0.197500X-0.160000X0.197500X-0.160000X-0.197500X0*%
%ADD22RoundRect,0.250000X-0.650000X1.500000X-0.650000X-1.500000X0.650000X-1.500000X0.650000X1.500000X0*%
%ADD23R,0.600000X1.200000*%
%ADD24RoundRect,0.250000X0.337500X0.475000X-0.337500X0.475000X-0.337500X-0.475000X0.337500X-0.475000X0*%
%ADD25R,0.250000X0.600000*%
%ADD26R,0.250000X0.900000*%
%ADD27R,0.250000X1.300000*%
%ADD28R,0.600000X0.250000*%
%ADD29R,0.900000X0.250000*%
%ADD30R,1.300000X0.250000*%
%ADD31RoundRect,0.250001X0.462499X0.849999X-0.462499X0.849999X-0.462499X-0.849999X0.462499X-0.849999X0*%
%ADD32RoundRect,0.250001X-0.849999X0.462499X-0.849999X-0.462499X0.849999X-0.462499X0.849999X0.462499X0*%
G04 APERTURE END LIST*
D10*
%TO.C,C8*%
X97300000Y-118937500D03*
X97300000Y-120662500D03*
%TD*%
D11*
%TO.C,Q1*%
X99124000Y-115900000D03*
X99124000Y-115250000D03*
X99124000Y-114600000D03*
X101000000Y-114600000D03*
X101000000Y-115250000D03*
X101000000Y-115900000D03*
D12*
X100062000Y-115575000D03*
D13*
X100062000Y-114550000D03*
%TD*%
D14*
%TO.C,C6*%
X110100000Y-101575000D03*
X110100000Y-99500000D03*
%TD*%
D15*
%TO.C,Q3*%
X86412500Y-106150000D03*
X86412500Y-104250000D03*
X88287500Y-105200000D03*
%TD*%
D16*
%TO.C,R14*%
X87097500Y-102500000D03*
X85902500Y-102500000D03*
%TD*%
D17*
%TO.C,R24*%
X85902500Y-94200000D03*
X87097500Y-94200000D03*
%TD*%
D18*
%TO.C,R8*%
X90837500Y-102202500D03*
X90837500Y-103397500D03*
%TD*%
D19*
%TO.C,C7*%
X93762500Y-116300000D03*
X92037500Y-116300000D03*
%TD*%
D18*
%TO.C,R4*%
X90837500Y-99802500D03*
X90837500Y-100997500D03*
%TD*%
D20*
%TO.C,D2*%
X99150000Y-121600000D03*
X100900000Y-121600000D03*
%TD*%
D17*
%TO.C,R6*%
X107102500Y-97000000D03*
X108297500Y-97000000D03*
%TD*%
D21*
%TO.C,R5*%
X89200000Y-120497500D03*
X89200000Y-119302500D03*
%TD*%
D15*
%TO.C,Q4*%
X86412500Y-99150000D03*
X86412500Y-97250000D03*
X88287500Y-98200000D03*
%TD*%
D18*
%TO.C,R10*%
X90400000Y-119302500D03*
X90400000Y-120497500D03*
%TD*%
D17*
%TO.C,R21*%
X85902500Y-101100000D03*
X87097500Y-101100000D03*
%TD*%
D14*
%TO.C,C5*%
X102500000Y-102037500D03*
X102500000Y-99962500D03*
%TD*%
D11*
%TO.C,Q2*%
X101000000Y-108400000D03*
X101000000Y-109050000D03*
X101000000Y-109700000D03*
X99124000Y-109700000D03*
X99124000Y-109050000D03*
X99124000Y-108400000D03*
D12*
X100062000Y-108725000D03*
D13*
X100062000Y-109750000D03*
%TD*%
D17*
%TO.C,R3*%
X104305000Y-95800000D03*
X105500000Y-95800000D03*
%TD*%
D16*
%TO.C,R9*%
X100597500Y-119900000D03*
X99402500Y-119900000D03*
%TD*%
D22*
%TO.C,D1*%
X108400000Y-114400000D03*
X108400000Y-119400000D03*
%TD*%
D16*
%TO.C,R25*%
X87097500Y-95600000D03*
X85902500Y-95600000D03*
%TD*%
D23*
%TO.C,IC3*%
X91950000Y-118150000D03*
X92900000Y-118150000D03*
X93850000Y-118150000D03*
X93850000Y-120650000D03*
X92900000Y-120650000D03*
X91950000Y-120650000D03*
%TD*%
D24*
%TO.C,C3*%
X95375000Y-98000000D03*
X93300000Y-98000000D03*
%TD*%
%TO.C,C2*%
X95237500Y-105500000D03*
X93162500Y-105500000D03*
%TD*%
D25*
%TO.C,IC5*%
X105300000Y-99350000D03*
X105800000Y-99350000D03*
X106300000Y-99350000D03*
X106800000Y-99350000D03*
X107300000Y-99350000D03*
D26*
X107300000Y-101000000D03*
X106800000Y-101000000D03*
D27*
X106300000Y-100800000D03*
D26*
X105800000Y-101000000D03*
X105300000Y-101000000D03*
%TD*%
D28*
%TO.C,IC6*%
X93137500Y-102800000D03*
X93137500Y-102300000D03*
X93137500Y-101800000D03*
X93137500Y-101300000D03*
X93137500Y-100800000D03*
D29*
X94787500Y-100800000D03*
X94787500Y-101300000D03*
D30*
X94587500Y-101800000D03*
D29*
X94787500Y-102300000D03*
X94787500Y-102800000D03*
%TD*%
D31*
%TO.C,L1*%
X107562500Y-104100000D03*
X105237500Y-104100000D03*
%TD*%
D18*
%TO.C,R1*%
X111300000Y-118102500D03*
X111300000Y-119297500D03*
%TD*%
D16*
%TO.C,R2*%
X108297500Y-95800000D03*
X107102500Y-95800000D03*
%TD*%
D32*
%TO.C,L2*%
X97837500Y-100637500D03*
X97837500Y-102962500D03*
%TD*%
D16*
%TO.C,R7*%
X105500000Y-97000000D03*
X104305000Y-97000000D03*
%TD*%
D24*
%TO.C,C4*%
X95375000Y-95800000D03*
X93300000Y-95800000D03*
%TD*%
M02*
