%TF.GenerationSoftware,KiCad,Pcbnew,7.0.6*%
%TF.CreationDate,2023-07-14T02:37:10+02:00*%
%TF.ProjectId,rrr,7272722e-6b69-4636-9164-5f7063625858,rev?*%
%TF.SameCoordinates,Original*%
%TF.FileFunction,Paste,Top*%
%TF.FilePolarity,Positive*%
%FSLAX46Y46*%
G04 Gerber Fmt 4.6, Leading zero omitted, Abs format (unit mm)*
G04 Created by KiCad (PCBNEW 7.0.6) date 2023-07-14 02:37:10*
%MOMM*%
%LPD*%
G01*
G04 APERTURE LIST*
G04 Aperture macros list*
%AMRoundRect*
0 Rectangle with rounded corners*
0 $1 Rounding radius*
0 $2 $3 $4 $5 $6 $7 $8 $9 X,Y pos of 4 corners*
0 Add a 4 corners polygon primitive as box body*
4,1,4,$2,$3,$4,$5,$6,$7,$8,$9,$2,$3,0*
0 Add four circle primitives for the rounded corners*
1,1,$1+$1,$2,$3*
1,1,$1+$1,$4,$5*
1,1,$1+$1,$6,$7*
1,1,$1+$1,$8,$9*
0 Add four rect primitives between the rounded corners*
20,1,$1+$1,$2,$3,$4,$5,0*
20,1,$1+$1,$4,$5,$6,$7,0*
20,1,$1+$1,$6,$7,$8,$9,0*
20,1,$1+$1,$8,$9,$2,$3,0*%
G04 Aperture macros list end*
%ADD10RoundRect,0.155000X0.155000X-0.212500X0.155000X0.212500X-0.155000X0.212500X-0.155000X-0.212500X0*%
%ADD11RoundRect,0.160000X0.197500X0.160000X-0.197500X0.160000X-0.197500X-0.160000X0.197500X-0.160000X0*%
%ADD12RoundRect,0.160000X0.160000X-0.197500X0.160000X0.197500X-0.160000X0.197500X-0.160000X-0.197500X0*%
%ADD13RoundRect,0.155000X-0.212500X-0.155000X0.212500X-0.155000X0.212500X0.155000X-0.212500X0.155000X0*%
%ADD14RoundRect,0.160000X-0.160000X0.197500X-0.160000X-0.197500X0.160000X-0.197500X0.160000X0.197500X0*%
%ADD15RoundRect,0.155000X-0.155000X0.212500X-0.155000X-0.212500X0.155000X-0.212500X0.155000X0.212500X0*%
%ADD16RoundRect,0.250000X-0.435000X-0.615000X0.435000X-0.615000X0.435000X0.615000X-0.435000X0.615000X0*%
%ADD17RoundRect,0.125000X-0.200000X-0.125000X0.200000X-0.125000X0.200000X0.125000X-0.200000X0.125000X0*%
%ADD18RoundRect,0.150000X-0.150000X0.512500X-0.150000X-0.512500X0.150000X-0.512500X0.150000X0.512500X0*%
%ADD19R,0.500000X0.350000*%
%ADD20RoundRect,0.237500X0.300000X0.237500X-0.300000X0.237500X-0.300000X-0.237500X0.300000X-0.237500X0*%
%ADD21R,0.300000X0.550000*%
%ADD22R,0.550000X0.300000*%
%ADD23R,0.700000X0.700000*%
%ADD24R,0.750000X0.300000*%
%ADD25R,0.900000X1.300000*%
%ADD26R,0.600000X1.140000*%
%ADD27R,0.300000X1.140000*%
%ADD28RoundRect,0.250000X0.337500X0.475000X-0.337500X0.475000X-0.337500X-0.475000X0.337500X-0.475000X0*%
%ADD29R,1.500000X0.900000*%
G04 APERTURE END LIST*
D10*
%TO.C,C1*%
X85900000Y-108967500D03*
X85900000Y-107832500D03*
%TD*%
D11*
%TO.C,R18*%
X97797500Y-111000000D03*
X96602500Y-111000000D03*
%TD*%
D12*
%TO.C,R15*%
X111750000Y-86997500D03*
X111750000Y-85802500D03*
%TD*%
D13*
%TO.C,C13*%
X97732500Y-105900000D03*
X98867500Y-105900000D03*
%TD*%
D10*
%TO.C,C16*%
X86600000Y-104167500D03*
X86600000Y-103032500D03*
%TD*%
D12*
%TO.C,R22*%
X104100000Y-113997500D03*
X104100000Y-112802500D03*
%TD*%
D14*
%TO.C,R23*%
X115400000Y-85800000D03*
X115400000Y-86995000D03*
%TD*%
D12*
%TO.C,R19*%
X103700000Y-108600000D03*
X103700000Y-107405000D03*
%TD*%
D15*
%TO.C,C11*%
X88600000Y-85332500D03*
X88600000Y-86467500D03*
%TD*%
D16*
%TO.C,U2*%
X105400000Y-101660000D03*
X105400000Y-103810000D03*
X107100000Y-101660000D03*
X107100000Y-103810000D03*
D17*
X102500000Y-100830000D03*
X102500000Y-102100000D03*
X102500000Y-103370000D03*
X102500000Y-104640000D03*
X110000000Y-104640000D03*
X110000000Y-103370000D03*
X110000000Y-102100000D03*
X110000000Y-100830000D03*
%TD*%
D14*
%TO.C,R13*%
X112950000Y-85802500D03*
X112950000Y-86997500D03*
%TD*%
D13*
%TO.C,C15*%
X88300000Y-101032500D03*
X89435000Y-101032500D03*
%TD*%
D18*
%TO.C,U4*%
X101950000Y-108562500D03*
X101000000Y-108562500D03*
X100050000Y-108562500D03*
X100050000Y-110837500D03*
X101000000Y-110837500D03*
X101950000Y-110837500D03*
%TD*%
D11*
%TO.C,R12*%
X92697500Y-107000000D03*
X91502500Y-107000000D03*
%TD*%
D19*
%TO.C,U1*%
X89700000Y-102582500D03*
X89700000Y-103232500D03*
X89700000Y-103882500D03*
X89700000Y-104532500D03*
X88100000Y-104532500D03*
X88100000Y-103882500D03*
X88100000Y-103232500D03*
X88100000Y-102582500D03*
%TD*%
D10*
%TO.C,C18*%
X95900000Y-105900000D03*
X95900000Y-104765000D03*
%TD*%
D20*
%TO.C,C10*%
X86562500Y-88400000D03*
X84837500Y-88400000D03*
%TD*%
D21*
%TO.C,IC2*%
X92350000Y-105532500D03*
X92850000Y-105532500D03*
X93350000Y-105532500D03*
X93850000Y-105532500D03*
D22*
X94250000Y-104532500D03*
X94250000Y-104032500D03*
X94250000Y-103532500D03*
D21*
X93850000Y-102532500D03*
X93350000Y-102532500D03*
X92850000Y-102532500D03*
X92350000Y-102532500D03*
D22*
X91950000Y-103532500D03*
X91950000Y-104032500D03*
X91950000Y-104532500D03*
%TD*%
D12*
%TO.C,R26*%
X114200000Y-86997500D03*
X114200000Y-85802500D03*
%TD*%
D23*
%TO.C,U3*%
X97735000Y-104365000D03*
X98835000Y-104365000D03*
X98835000Y-102535000D03*
X97735000Y-102535000D03*
%TD*%
D24*
%TO.C,IC4*%
X87500000Y-107600000D03*
X87500000Y-108100000D03*
X87500000Y-108600000D03*
X87500000Y-109100000D03*
X89500000Y-109100000D03*
X89500000Y-108600000D03*
X89500000Y-108100000D03*
X89500000Y-107600000D03*
D25*
X88500000Y-108350000D03*
%TD*%
D26*
%TO.C,J1*%
X96775000Y-115950000D03*
X97575000Y-115950000D03*
D27*
X98725000Y-115950000D03*
X99725000Y-115950000D03*
X100225000Y-115950000D03*
X101225000Y-115950000D03*
D26*
X103175000Y-115950000D03*
X102375000Y-115950000D03*
D27*
X101725000Y-115950000D03*
X100725000Y-115950000D03*
X99225000Y-115950000D03*
X98225000Y-115950000D03*
%TD*%
D28*
%TO.C,C12*%
X85437500Y-85800000D03*
X83362500Y-85800000D03*
%TD*%
D11*
%TO.C,R11*%
X95897500Y-107000000D03*
X94702500Y-107000000D03*
%TD*%
D12*
%TO.C,R20*%
X102700000Y-113997500D03*
X102700000Y-112802500D03*
%TD*%
D15*
%TO.C,C17*%
X95900000Y-102165000D03*
X95900000Y-103300000D03*
%TD*%
D12*
%TO.C,R16*%
X111750000Y-89797500D03*
X111750000Y-88602500D03*
%TD*%
D15*
%TO.C,C14*%
X111300000Y-102132500D03*
X111300000Y-103267500D03*
%TD*%
D29*
%TO.C,IC1*%
X91250000Y-85300000D03*
X91250000Y-86800000D03*
X91250000Y-88300000D03*
X91250000Y-89800000D03*
X91250000Y-91300000D03*
X91250000Y-92800000D03*
X91250000Y-94300000D03*
X91250000Y-95800000D03*
X91250000Y-97300000D03*
X108750000Y-97300000D03*
X108750000Y-95800000D03*
X108750000Y-94300000D03*
X108750000Y-92800000D03*
X108750000Y-91300000D03*
X108750000Y-89800000D03*
X108750000Y-88300000D03*
X108750000Y-86800000D03*
X108750000Y-85300000D03*
D23*
X100960000Y-91500000D03*
X102060000Y-91500000D03*
X102060000Y-90400000D03*
X100960000Y-90400000D03*
X99860000Y-90400000D03*
X99860000Y-91500000D03*
X99860000Y-92600000D03*
X100960000Y-92600000D03*
X102060000Y-92600000D03*
%TD*%
D12*
%TO.C,R17*%
X112900000Y-109697500D03*
X112900000Y-108502500D03*
%TD*%
D14*
%TO.C,R27*%
X87200000Y-85302500D03*
X87200000Y-86497500D03*
%TD*%
M02*
