%TF.GenerationSoftware,KiCad,Pcbnew,7.0.6*%
%TF.CreationDate,2023-07-14T02:37:10+02:00*%
%TF.ProjectId,rrr,7272722e-6b69-4636-9164-5f7063625858,rev?*%
%TF.SameCoordinates,Original*%
%TF.FileFunction,Legend,Bot*%
%TF.FilePolarity,Positive*%
%FSLAX46Y46*%
G04 Gerber Fmt 4.6, Leading zero omitted, Abs format (unit mm)*
G04 Created by KiCad (PCBNEW 7.0.6) date 2023-07-14 02:37:10*
%MOMM*%
%LPD*%
G01*
G04 APERTURE LIST*
%ADD10C,0.150000*%
%ADD11C,0.120000*%
%ADD12C,0.100000*%
%ADD13C,0.200000*%
G04 APERTURE END LIST*
D10*
X86763220Y-92669819D02*
X86763220Y-91669819D01*
X86763220Y-91669819D02*
X86382268Y-91669819D01*
X86382268Y-91669819D02*
X86287030Y-91717438D01*
X86287030Y-91717438D02*
X86239411Y-91765057D01*
X86239411Y-91765057D02*
X86191792Y-91860295D01*
X86191792Y-91860295D02*
X86191792Y-92003152D01*
X86191792Y-92003152D02*
X86239411Y-92098390D01*
X86239411Y-92098390D02*
X86287030Y-92146009D01*
X86287030Y-92146009D02*
X86382268Y-92193628D01*
X86382268Y-92193628D02*
X86763220Y-92193628D01*
X85572744Y-92193628D02*
X85572744Y-92669819D01*
X85906077Y-91669819D02*
X85572744Y-92193628D01*
X85572744Y-92193628D02*
X85239411Y-91669819D01*
X84334649Y-92669819D02*
X84667982Y-92193628D01*
X84906077Y-92669819D02*
X84906077Y-91669819D01*
X84906077Y-91669819D02*
X84525125Y-91669819D01*
X84525125Y-91669819D02*
X84429887Y-91717438D01*
X84429887Y-91717438D02*
X84382268Y-91765057D01*
X84382268Y-91765057D02*
X84334649Y-91860295D01*
X84334649Y-91860295D02*
X84334649Y-92003152D01*
X84334649Y-92003152D02*
X84382268Y-92098390D01*
X84382268Y-92098390D02*
X84429887Y-92146009D01*
X84429887Y-92146009D02*
X84525125Y-92193628D01*
X84525125Y-92193628D02*
X84906077Y-92193628D01*
X83953696Y-91765057D02*
X83906077Y-91717438D01*
X83906077Y-91717438D02*
X83810839Y-91669819D01*
X83810839Y-91669819D02*
X83572744Y-91669819D01*
X83572744Y-91669819D02*
X83477506Y-91717438D01*
X83477506Y-91717438D02*
X83429887Y-91765057D01*
X83429887Y-91765057D02*
X83382268Y-91860295D01*
X83382268Y-91860295D02*
X83382268Y-91955533D01*
X83382268Y-91955533D02*
X83429887Y-92098390D01*
X83429887Y-92098390D02*
X84001315Y-92669819D01*
X84001315Y-92669819D02*
X83382268Y-92669819D01*
X87863220Y-108619819D02*
X87863220Y-107619819D01*
X87863220Y-107619819D02*
X87482268Y-107619819D01*
X87482268Y-107619819D02*
X87387030Y-107667438D01*
X87387030Y-107667438D02*
X87339411Y-107715057D01*
X87339411Y-107715057D02*
X87291792Y-107810295D01*
X87291792Y-107810295D02*
X87291792Y-107953152D01*
X87291792Y-107953152D02*
X87339411Y-108048390D01*
X87339411Y-108048390D02*
X87387030Y-108096009D01*
X87387030Y-108096009D02*
X87482268Y-108143628D01*
X87482268Y-108143628D02*
X87863220Y-108143628D01*
X86672744Y-108143628D02*
X86672744Y-108619819D01*
X87006077Y-107619819D02*
X86672744Y-108143628D01*
X86672744Y-108143628D02*
X86339411Y-107619819D01*
X85434649Y-108619819D02*
X85767982Y-108143628D01*
X86006077Y-108619819D02*
X86006077Y-107619819D01*
X86006077Y-107619819D02*
X85625125Y-107619819D01*
X85625125Y-107619819D02*
X85529887Y-107667438D01*
X85529887Y-107667438D02*
X85482268Y-107715057D01*
X85482268Y-107715057D02*
X85434649Y-107810295D01*
X85434649Y-107810295D02*
X85434649Y-107953152D01*
X85434649Y-107953152D02*
X85482268Y-108048390D01*
X85482268Y-108048390D02*
X85529887Y-108096009D01*
X85529887Y-108096009D02*
X85625125Y-108143628D01*
X85625125Y-108143628D02*
X86006077Y-108143628D01*
X84482268Y-108619819D02*
X85053696Y-108619819D01*
X84767982Y-108619819D02*
X84767982Y-107619819D01*
X84767982Y-107619819D02*
X84863220Y-107762676D01*
X84863220Y-107762676D02*
X84958458Y-107857914D01*
X84958458Y-107857914D02*
X85053696Y-107905533D01*
X83613220Y-115588866D02*
X82851316Y-115588866D01*
X121789411Y-92717438D02*
X121884649Y-92669819D01*
X121884649Y-92669819D02*
X122027506Y-92669819D01*
X122027506Y-92669819D02*
X122170363Y-92717438D01*
X122170363Y-92717438D02*
X122265601Y-92812676D01*
X122265601Y-92812676D02*
X122313220Y-92907914D01*
X122313220Y-92907914D02*
X122360839Y-93098390D01*
X122360839Y-93098390D02*
X122360839Y-93241247D01*
X122360839Y-93241247D02*
X122313220Y-93431723D01*
X122313220Y-93431723D02*
X122265601Y-93526961D01*
X122265601Y-93526961D02*
X122170363Y-93622200D01*
X122170363Y-93622200D02*
X122027506Y-93669819D01*
X122027506Y-93669819D02*
X121932268Y-93669819D01*
X121932268Y-93669819D02*
X121789411Y-93622200D01*
X121789411Y-93622200D02*
X121741792Y-93574580D01*
X121741792Y-93574580D02*
X121741792Y-93241247D01*
X121741792Y-93241247D02*
X121932268Y-93241247D01*
X120837030Y-92669819D02*
X121313220Y-92669819D01*
X121313220Y-92669819D02*
X121360839Y-93146009D01*
X121360839Y-93146009D02*
X121313220Y-93098390D01*
X121313220Y-93098390D02*
X121217982Y-93050771D01*
X121217982Y-93050771D02*
X120979887Y-93050771D01*
X120979887Y-93050771D02*
X120884649Y-93098390D01*
X120884649Y-93098390D02*
X120837030Y-93146009D01*
X120837030Y-93146009D02*
X120789411Y-93241247D01*
X120789411Y-93241247D02*
X120789411Y-93479342D01*
X120789411Y-93479342D02*
X120837030Y-93574580D01*
X120837030Y-93574580D02*
X120884649Y-93622200D01*
X120884649Y-93622200D02*
X120979887Y-93669819D01*
X120979887Y-93669819D02*
X121217982Y-93669819D01*
X121217982Y-93669819D02*
X121313220Y-93622200D01*
X121313220Y-93622200D02*
X121360839Y-93574580D01*
X120360839Y-93669819D02*
X120360839Y-92669819D01*
X120360839Y-92669819D02*
X119979887Y-92669819D01*
X119979887Y-92669819D02*
X119884649Y-92717438D01*
X119884649Y-92717438D02*
X119837030Y-92765057D01*
X119837030Y-92765057D02*
X119789411Y-92860295D01*
X119789411Y-92860295D02*
X119789411Y-93003152D01*
X119789411Y-93003152D02*
X119837030Y-93098390D01*
X119837030Y-93098390D02*
X119884649Y-93146009D01*
X119884649Y-93146009D02*
X119979887Y-93193628D01*
X119979887Y-93193628D02*
X120360839Y-93193628D01*
X116063220Y-109369819D02*
X116063220Y-108369819D01*
X116063220Y-108369819D02*
X115682268Y-108369819D01*
X115682268Y-108369819D02*
X115587030Y-108417438D01*
X115587030Y-108417438D02*
X115539411Y-108465057D01*
X115539411Y-108465057D02*
X115491792Y-108560295D01*
X115491792Y-108560295D02*
X115491792Y-108703152D01*
X115491792Y-108703152D02*
X115539411Y-108798390D01*
X115539411Y-108798390D02*
X115587030Y-108846009D01*
X115587030Y-108846009D02*
X115682268Y-108893628D01*
X115682268Y-108893628D02*
X116063220Y-108893628D01*
X115158458Y-108369819D02*
X114920363Y-109369819D01*
X114920363Y-109369819D02*
X114729887Y-108655533D01*
X114729887Y-108655533D02*
X114539411Y-109369819D01*
X114539411Y-109369819D02*
X114301316Y-108369819D01*
X113920363Y-109369819D02*
X113920363Y-108369819D01*
X113920363Y-108369819D02*
X113587030Y-109084104D01*
X113587030Y-109084104D02*
X113253697Y-108369819D01*
X113253697Y-108369819D02*
X113253697Y-109369819D01*
X112825125Y-108465057D02*
X112777506Y-108417438D01*
X112777506Y-108417438D02*
X112682268Y-108369819D01*
X112682268Y-108369819D02*
X112444173Y-108369819D01*
X112444173Y-108369819D02*
X112348935Y-108417438D01*
X112348935Y-108417438D02*
X112301316Y-108465057D01*
X112301316Y-108465057D02*
X112253697Y-108560295D01*
X112253697Y-108560295D02*
X112253697Y-108655533D01*
X112253697Y-108655533D02*
X112301316Y-108798390D01*
X112301316Y-108798390D02*
X112872744Y-109369819D01*
X112872744Y-109369819D02*
X112253697Y-109369819D01*
X83613220Y-113038866D02*
X82851316Y-113038866D01*
X83232268Y-113419819D02*
X83232268Y-112657914D01*
X115863220Y-93669819D02*
X115863220Y-92669819D01*
X115863220Y-92669819D02*
X115482268Y-92669819D01*
X115482268Y-92669819D02*
X115387030Y-92717438D01*
X115387030Y-92717438D02*
X115339411Y-92765057D01*
X115339411Y-92765057D02*
X115291792Y-92860295D01*
X115291792Y-92860295D02*
X115291792Y-93003152D01*
X115291792Y-93003152D02*
X115339411Y-93098390D01*
X115339411Y-93098390D02*
X115387030Y-93146009D01*
X115387030Y-93146009D02*
X115482268Y-93193628D01*
X115482268Y-93193628D02*
X115863220Y-93193628D01*
X114958458Y-92669819D02*
X114720363Y-93669819D01*
X114720363Y-93669819D02*
X114529887Y-92955533D01*
X114529887Y-92955533D02*
X114339411Y-93669819D01*
X114339411Y-93669819D02*
X114101316Y-92669819D01*
X113720363Y-93669819D02*
X113720363Y-92669819D01*
X113720363Y-92669819D02*
X113387030Y-93384104D01*
X113387030Y-93384104D02*
X113053697Y-92669819D01*
X113053697Y-92669819D02*
X113053697Y-93669819D01*
X112053697Y-93669819D02*
X112625125Y-93669819D01*
X112339411Y-93669819D02*
X112339411Y-92669819D01*
X112339411Y-92669819D02*
X112434649Y-92812676D01*
X112434649Y-92812676D02*
X112529887Y-92907914D01*
X112529887Y-92907914D02*
X112625125Y-92955533D01*
%TO.C,G\u002A\u002A\u002A*%
G36*
X102087046Y-95010300D02*
G01*
X102150127Y-95011172D01*
X102203442Y-95012532D01*
X102244432Y-95014295D01*
X102270535Y-95016374D01*
X102279191Y-95018685D01*
X102278265Y-95020436D01*
X102269189Y-95036509D01*
X102250976Y-95068369D01*
X102224259Y-95114916D01*
X102189671Y-95175053D01*
X102147846Y-95247681D01*
X102099418Y-95331701D01*
X102045018Y-95426014D01*
X101985282Y-95529523D01*
X101920842Y-95641127D01*
X101852331Y-95759730D01*
X101780383Y-95884232D01*
X101705632Y-96013534D01*
X101135408Y-96999699D01*
X100973769Y-96999849D01*
X100812130Y-97000000D01*
X100270992Y-96015945D01*
X100249278Y-95976450D01*
X100178629Y-95847819D01*
X100110919Y-95724353D01*
X100046760Y-95607173D01*
X99986762Y-95497404D01*
X99931536Y-95396167D01*
X99881692Y-95304586D01*
X99837841Y-95223784D01*
X99800594Y-95154884D01*
X99770561Y-95099008D01*
X99748353Y-95057279D01*
X99734581Y-95030822D01*
X99729854Y-95020757D01*
X99730834Y-95019166D01*
X99743244Y-95015725D01*
X99770855Y-95013364D01*
X99814862Y-95012038D01*
X99876463Y-95011702D01*
X99956855Y-95012312D01*
X100183855Y-95015000D01*
X100564529Y-95727500D01*
X100590778Y-95776607D01*
X100648749Y-95884888D01*
X100703725Y-95987344D01*
X100754993Y-96082661D01*
X100801843Y-96169524D01*
X100843562Y-96246619D01*
X100879437Y-96312632D01*
X100908758Y-96366248D01*
X100930811Y-96406153D01*
X100944886Y-96431033D01*
X100950269Y-96439574D01*
X100951916Y-96437312D01*
X100962129Y-96420343D01*
X100980978Y-96387856D01*
X101007731Y-96341144D01*
X101041655Y-96281502D01*
X101082019Y-96210223D01*
X101128091Y-96128602D01*
X101179137Y-96037932D01*
X101234427Y-95939509D01*
X101293228Y-95834624D01*
X101354807Y-95724574D01*
X101754277Y-95010000D01*
X102018402Y-95010000D01*
X102087046Y-95010300D01*
G37*
G36*
X97951654Y-95005149D02*
G01*
X97952346Y-95005253D01*
X97972957Y-95008369D01*
X98010698Y-95014096D01*
X98063083Y-95022056D01*
X98127624Y-95031871D01*
X98201835Y-95043162D01*
X98283229Y-95055551D01*
X98369319Y-95068660D01*
X98744466Y-95125797D01*
X98747258Y-95257898D01*
X98750049Y-95390000D01*
X98539676Y-95390000D01*
X98329303Y-95390000D01*
X98329303Y-96195000D01*
X98329303Y-97000000D01*
X98119220Y-97000000D01*
X97909137Y-97000000D01*
X97909137Y-95999387D01*
X97909137Y-94998775D01*
X97951654Y-95005149D01*
G37*
G36*
X108480000Y-90899411D02*
G01*
X108480000Y-92900000D01*
X108020000Y-92900000D01*
X107560000Y-92900000D01*
X107560000Y-92150000D01*
X107560000Y-91400000D01*
X107115000Y-91400833D01*
X106670000Y-91401667D01*
X105870776Y-92150833D01*
X105071551Y-92900000D01*
X104401776Y-92900000D01*
X104325805Y-92899908D01*
X104158885Y-92898974D01*
X104016214Y-92897099D01*
X103900939Y-92894372D01*
X103816213Y-92890881D01*
X103765183Y-92886711D01*
X103751001Y-92881951D01*
X103763571Y-92871319D01*
X103804983Y-92837084D01*
X103872332Y-92781720D01*
X103962808Y-92707527D01*
X104073600Y-92616807D01*
X104201895Y-92511861D01*
X104344884Y-92394992D01*
X104499755Y-92268501D01*
X104663697Y-92134690D01*
X105557393Y-91405477D01*
X105173697Y-91394442D01*
X105040796Y-91389653D01*
X104879067Y-91380077D01*
X104756981Y-91367463D01*
X104674391Y-91351798D01*
X104521421Y-91298489D01*
X104397659Y-91227526D01*
X104302367Y-91135632D01*
X104232451Y-91018883D01*
X104184819Y-90873360D01*
X104156377Y-90695139D01*
X104151276Y-90626488D01*
X104147020Y-90518297D01*
X104144694Y-90388536D01*
X104144374Y-90300499D01*
X105061489Y-90300499D01*
X105061507Y-90389087D01*
X105063627Y-90452516D01*
X105068408Y-90497046D01*
X105076409Y-90528935D01*
X105088189Y-90554443D01*
X105104307Y-90579830D01*
X105147065Y-90628087D01*
X105230450Y-90672948D01*
X105242727Y-90675759D01*
X105286622Y-90681081D01*
X105356575Y-90685608D01*
X105454575Y-90689384D01*
X105582615Y-90692450D01*
X105742686Y-90694849D01*
X105936780Y-90696622D01*
X106166887Y-90697813D01*
X106435000Y-90698462D01*
X107560000Y-90700000D01*
X107560000Y-90150000D01*
X107560000Y-89600000D01*
X106448857Y-89600000D01*
X106400311Y-89600010D01*
X106116194Y-89600574D01*
X105872015Y-89601996D01*
X105667783Y-89604275D01*
X105503507Y-89607411D01*
X105379196Y-89611404D01*
X105294858Y-89616253D01*
X105250502Y-89621960D01*
X105231843Y-89627446D01*
X105166163Y-89657036D01*
X105116645Y-89693521D01*
X105111328Y-89699265D01*
X105096449Y-89718156D01*
X105085484Y-89741141D01*
X105077704Y-89774203D01*
X105072380Y-89823327D01*
X105068783Y-89894496D01*
X105066185Y-89993694D01*
X105063857Y-90126906D01*
X105063014Y-90180493D01*
X105061489Y-90300499D01*
X104144374Y-90300499D01*
X104144169Y-90244046D01*
X104145322Y-90091666D01*
X104148024Y-89938236D01*
X104152150Y-89790598D01*
X104157574Y-89655590D01*
X104164169Y-89540054D01*
X104171810Y-89450830D01*
X104180369Y-89394758D01*
X104193527Y-89349392D01*
X104257541Y-89219915D01*
X104354208Y-89106320D01*
X104478899Y-89013265D01*
X104626982Y-88945409D01*
X104632834Y-88943489D01*
X104653672Y-88937773D01*
X104679470Y-88932726D01*
X104712731Y-88928298D01*
X104755957Y-88924437D01*
X104811652Y-88921091D01*
X104882319Y-88918210D01*
X104970459Y-88915740D01*
X105078577Y-88913631D01*
X105209175Y-88911832D01*
X105364755Y-88910289D01*
X105547822Y-88908953D01*
X105760876Y-88907771D01*
X106006423Y-88906691D01*
X106286963Y-88905663D01*
X106605000Y-88904634D01*
X108480000Y-88898823D01*
X108480000Y-89600000D01*
X108480000Y-90899411D01*
G37*
G36*
X102260000Y-90900000D02*
G01*
X102260000Y-92900000D01*
X101800000Y-92900000D01*
X101340000Y-92900000D01*
X101340000Y-92150000D01*
X101340000Y-91400000D01*
X100895000Y-91401180D01*
X100450000Y-91402361D01*
X99653175Y-92151180D01*
X98856350Y-92900000D01*
X98183175Y-92899555D01*
X98073128Y-92899458D01*
X97913176Y-92899110D01*
X97787395Y-92898359D01*
X97692100Y-92896998D01*
X97623602Y-92894823D01*
X97578216Y-92891629D01*
X97552254Y-92887210D01*
X97542030Y-92881361D01*
X97543857Y-92873878D01*
X97554048Y-92864555D01*
X97566060Y-92854918D01*
X97608139Y-92820798D01*
X97676295Y-92765357D01*
X97767570Y-92691005D01*
X97879006Y-92600155D01*
X98007646Y-92495218D01*
X98150532Y-92378606D01*
X98304707Y-92252729D01*
X98467212Y-92120000D01*
X99336329Y-91410000D01*
X98953165Y-91396555D01*
X98869647Y-91393230D01*
X98689741Y-91382138D01*
X98542177Y-91365656D01*
X98421597Y-91342215D01*
X98322647Y-91310250D01*
X98239970Y-91268193D01*
X98168210Y-91214477D01*
X98102009Y-91147535D01*
X98032804Y-91050055D01*
X97978365Y-90919134D01*
X97973283Y-90902063D01*
X97963307Y-90864464D01*
X97955473Y-90825050D01*
X97949583Y-90779049D01*
X97945434Y-90721688D01*
X97942827Y-90648194D01*
X97941560Y-90553794D01*
X97941432Y-90433716D01*
X97942243Y-90283188D01*
X97943354Y-90149999D01*
X98840000Y-90149999D01*
X98840823Y-90270924D01*
X98844904Y-90390124D01*
X98853673Y-90479601D01*
X98868521Y-90545025D01*
X98890836Y-90592065D01*
X98922007Y-90626390D01*
X98963425Y-90653671D01*
X98965750Y-90654918D01*
X98982506Y-90662458D01*
X99004005Y-90668877D01*
X99033452Y-90674285D01*
X99074053Y-90678792D01*
X99129012Y-90682508D01*
X99201535Y-90685543D01*
X99294827Y-90688007D01*
X99412093Y-90690011D01*
X99556538Y-90691664D01*
X99731367Y-90693077D01*
X99939787Y-90694359D01*
X100185000Y-90695621D01*
X101340000Y-90701242D01*
X101340000Y-90150000D01*
X101340000Y-89598757D01*
X100185000Y-89604378D01*
X100145362Y-89604572D01*
X99905928Y-89605830D01*
X99702803Y-89607125D01*
X99532782Y-89608567D01*
X99392660Y-89610266D01*
X99279232Y-89612333D01*
X99189293Y-89614876D01*
X99119636Y-89618008D01*
X99067058Y-89621836D01*
X99028353Y-89626473D01*
X99000316Y-89632027D01*
X98979742Y-89638608D01*
X98963425Y-89646328D01*
X98929345Y-89667831D01*
X98896257Y-89700313D01*
X98872300Y-89744387D01*
X98856085Y-89805724D01*
X98846223Y-89889991D01*
X98841325Y-90002860D01*
X98840000Y-90149999D01*
X97943354Y-90149999D01*
X97943792Y-90097435D01*
X97950000Y-89410000D01*
X98001804Y-89300000D01*
X98022798Y-89257492D01*
X98087250Y-89154032D01*
X98162372Y-89076166D01*
X98257738Y-89013161D01*
X98264666Y-89009393D01*
X98298516Y-88991362D01*
X98331349Y-88975444D01*
X98365728Y-88961507D01*
X98404217Y-88949419D01*
X98449380Y-88939047D01*
X98503779Y-88930260D01*
X98569979Y-88922925D01*
X98650544Y-88916909D01*
X98748036Y-88912081D01*
X98865019Y-88908309D01*
X99004057Y-88905460D01*
X99167714Y-88903401D01*
X99358553Y-88902002D01*
X99579137Y-88901129D01*
X99832031Y-88900650D01*
X100119798Y-88900434D01*
X100445000Y-88900347D01*
X102260000Y-88900000D01*
X102260000Y-89598757D01*
X102260000Y-90900000D01*
G37*
G36*
X96060000Y-90899411D02*
G01*
X96060000Y-92900000D01*
X95590000Y-92900000D01*
X95120000Y-92900000D01*
X95120000Y-92150000D01*
X95120000Y-91400000D01*
X94680081Y-91399999D01*
X94240161Y-91399999D01*
X93440795Y-92149999D01*
X92641429Y-92899999D01*
X91968988Y-92900000D01*
X91296546Y-92900000D01*
X92207389Y-92155000D01*
X93118233Y-91410000D01*
X92744117Y-91397562D01*
X92719796Y-91396714D01*
X92511737Y-91385276D01*
X92338482Y-91366284D01*
X92195680Y-91337885D01*
X92078978Y-91298230D01*
X91984025Y-91245465D01*
X91906467Y-91177739D01*
X91841953Y-91093201D01*
X91786131Y-90990000D01*
X91730000Y-90870000D01*
X91730000Y-90160000D01*
X91730006Y-90144357D01*
X92621129Y-90144357D01*
X92622319Y-90264779D01*
X92626593Y-90384095D01*
X92635213Y-90473704D01*
X92649522Y-90539303D01*
X92670862Y-90586589D01*
X92700574Y-90621260D01*
X92740000Y-90649012D01*
X92752308Y-90655871D01*
X92769465Y-90663521D01*
X92791118Y-90669974D01*
X92820495Y-90675353D01*
X92860823Y-90679782D01*
X92915329Y-90683382D01*
X92987242Y-90686279D01*
X93079789Y-90688594D01*
X93196198Y-90690452D01*
X93339696Y-90691975D01*
X93513510Y-90693286D01*
X93720869Y-90694509D01*
X93965000Y-90695766D01*
X95120000Y-90701533D01*
X95120000Y-90150145D01*
X95120000Y-89598757D01*
X93965000Y-89604378D01*
X93925362Y-89604572D01*
X93685928Y-89605830D01*
X93482803Y-89607125D01*
X93312782Y-89608567D01*
X93172660Y-89610266D01*
X93059232Y-89612333D01*
X92969293Y-89614876D01*
X92899636Y-89618008D01*
X92847058Y-89621836D01*
X92808353Y-89626473D01*
X92780316Y-89632027D01*
X92759742Y-89638608D01*
X92743425Y-89646328D01*
X92711596Y-89666162D01*
X92677628Y-89698443D01*
X92653087Y-89742069D01*
X92636571Y-89802757D01*
X92626675Y-89886224D01*
X92621995Y-89998185D01*
X92621129Y-90144357D01*
X91730006Y-90144357D01*
X91730037Y-90055428D01*
X91730525Y-89873138D01*
X91731989Y-89724164D01*
X91734938Y-89604046D01*
X91739881Y-89508323D01*
X91747326Y-89432532D01*
X91757782Y-89372213D01*
X91771759Y-89322905D01*
X91789764Y-89280146D01*
X91812307Y-89239474D01*
X91839897Y-89196430D01*
X91845049Y-89188781D01*
X91930109Y-89091726D01*
X92040733Y-89014789D01*
X92183369Y-88953410D01*
X92198216Y-88948379D01*
X92219825Y-88941654D01*
X92243221Y-88935750D01*
X92270951Y-88930604D01*
X92305563Y-88926156D01*
X92349605Y-88922342D01*
X92405623Y-88919099D01*
X92476167Y-88916367D01*
X92563782Y-88914081D01*
X92671016Y-88912180D01*
X92800418Y-88910602D01*
X92954535Y-88909284D01*
X93135913Y-88908163D01*
X93347102Y-88907178D01*
X93590647Y-88906266D01*
X93869098Y-88905364D01*
X94185000Y-88904411D01*
X96060000Y-88898823D01*
X96060000Y-89598757D01*
X96060000Y-90899411D01*
G37*
G36*
X84455003Y-85900000D02*
G01*
X84455003Y-86719884D01*
X83610523Y-86719884D01*
X82766042Y-86719884D01*
X82766042Y-86564106D01*
X82766042Y-86408328D01*
X83421949Y-86408328D01*
X84077856Y-86408328D01*
X84077856Y-86211556D01*
X84077856Y-86014784D01*
X83700710Y-86014784D01*
X83323563Y-86014784D01*
X83323563Y-85867205D01*
X83323563Y-85719626D01*
X83700710Y-85719626D01*
X84077856Y-85719626D01*
X84077856Y-85539251D01*
X84077856Y-85358877D01*
X83430148Y-85358877D01*
X82782440Y-85358877D01*
X82782440Y-85219497D01*
X82782440Y-85080117D01*
X83618722Y-85080117D01*
X84455003Y-85080117D01*
X84455003Y-85900000D01*
G37*
G36*
X87160620Y-85900139D02*
G01*
X87160620Y-86722453D01*
X86492414Y-86715826D01*
X86329652Y-86714113D01*
X86190160Y-86712326D01*
X86076612Y-86710350D01*
X85985525Y-86708007D01*
X85913416Y-86705120D01*
X85856801Y-86701512D01*
X85812196Y-86697006D01*
X85776118Y-86691424D01*
X85745084Y-86684591D01*
X85715610Y-86676328D01*
X85627074Y-86644289D01*
X85489818Y-86569263D01*
X85374729Y-86471178D01*
X85283024Y-86351768D01*
X85215915Y-86212770D01*
X85174617Y-86055918D01*
X85160379Y-85883365D01*
X85562981Y-85883365D01*
X85564526Y-85955513D01*
X85570350Y-86020964D01*
X85582176Y-86073979D01*
X85601769Y-86125588D01*
X85632889Y-86185219D01*
X85691572Y-86257889D01*
X85768788Y-86313512D01*
X85868929Y-86354977D01*
X85996385Y-86385170D01*
X86013875Y-86387959D01*
X86090037Y-86395979D01*
X86191028Y-86402156D01*
X86310779Y-86406184D01*
X86443221Y-86407756D01*
X86767075Y-86408328D01*
X86767075Y-85890577D01*
X86767075Y-85372825D01*
X86344835Y-85379461D01*
X86340823Y-85379525D01*
X86192690Y-85382699D01*
X86068475Y-85387049D01*
X85970397Y-85392453D01*
X85900672Y-85398790D01*
X85861518Y-85405939D01*
X85858800Y-85406834D01*
X85760446Y-85456277D01*
X85675945Y-85532161D01*
X85611217Y-85629202D01*
X85595179Y-85662439D01*
X85577624Y-85706965D01*
X85567795Y-85751307D01*
X85563609Y-85806446D01*
X85562981Y-85883365D01*
X85160379Y-85883365D01*
X85160345Y-85882948D01*
X85161750Y-85824802D01*
X85184196Y-85662028D01*
X85233760Y-85517634D01*
X85310144Y-85392037D01*
X85413049Y-85285653D01*
X85542175Y-85198902D01*
X85697226Y-85132199D01*
X85824209Y-85089442D01*
X86492414Y-85083634D01*
X87160620Y-85077826D01*
X87160620Y-85372825D01*
X87160620Y-85900139D01*
G37*
G36*
X88374048Y-85744222D02*
G01*
X88374048Y-86408328D01*
X88915171Y-86408328D01*
X89456294Y-86408328D01*
X89456294Y-85744222D01*
X89456294Y-85080117D01*
X89654169Y-85080117D01*
X89852043Y-85080117D01*
X89846841Y-85781117D01*
X89845785Y-85918703D01*
X89844475Y-86065509D01*
X89843040Y-86185280D01*
X89841316Y-86281231D01*
X89839139Y-86356575D01*
X89836346Y-86414527D01*
X89832772Y-86458302D01*
X89828256Y-86491113D01*
X89822632Y-86516175D01*
X89815738Y-86536701D01*
X89807410Y-86555907D01*
X89789234Y-86592459D01*
X89755867Y-86640251D01*
X89713007Y-86671497D01*
X89649487Y-86696110D01*
X89642053Y-86698219D01*
X89613316Y-86703564D01*
X89571616Y-86707841D01*
X89514121Y-86711121D01*
X89437997Y-86713474D01*
X89340413Y-86714971D01*
X89218537Y-86715682D01*
X89069534Y-86715679D01*
X88890574Y-86715031D01*
X88787630Y-86714510D01*
X88636378Y-86713588D01*
X88512831Y-86712490D01*
X88413778Y-86711061D01*
X88336011Y-86709149D01*
X88276322Y-86706598D01*
X88231502Y-86703255D01*
X88198343Y-86698967D01*
X88173634Y-86693579D01*
X88154169Y-86686938D01*
X88136738Y-86678890D01*
X88126270Y-86673142D01*
X88075914Y-86634231D01*
X88038352Y-86588703D01*
X88030421Y-86573793D01*
X88023807Y-86556818D01*
X88018393Y-86534757D01*
X88014029Y-86504530D01*
X88010567Y-86463061D01*
X88007857Y-86407268D01*
X88005749Y-86334075D01*
X88004095Y-86240401D01*
X88002744Y-86123169D01*
X88001548Y-85979300D01*
X88000356Y-85805714D01*
X87995613Y-85080117D01*
X88184830Y-85080117D01*
X88374048Y-85080117D01*
X88374048Y-85744222D01*
G37*
G36*
X92194706Y-85227696D02*
G01*
X92194706Y-85375275D01*
X91817559Y-85375275D01*
X91440413Y-85375275D01*
X91440413Y-86047579D01*
X91440413Y-86719884D01*
X91251840Y-86719884D01*
X91063266Y-86719884D01*
X91063266Y-86047579D01*
X91063266Y-85375275D01*
X90686120Y-85375275D01*
X90308973Y-85375275D01*
X90308973Y-85227696D01*
X90308973Y-85080117D01*
X91251840Y-85080117D01*
X92194706Y-85080117D01*
X92194706Y-85227696D01*
G37*
G36*
X93047385Y-85900000D02*
G01*
X93047385Y-86719884D01*
X92858812Y-86719884D01*
X92670239Y-86719884D01*
X92670239Y-85900000D01*
X92670239Y-85080117D01*
X92858812Y-85080117D01*
X93047385Y-85080117D01*
X93047385Y-85900000D01*
G37*
G36*
X95408651Y-85227696D02*
G01*
X95408651Y-85375275D01*
X95031504Y-85375275D01*
X94654357Y-85375275D01*
X94654357Y-86047579D01*
X94654357Y-86719884D01*
X94457585Y-86719884D01*
X94260813Y-86719884D01*
X94260813Y-86047579D01*
X94260813Y-85375275D01*
X93883667Y-85375275D01*
X93506520Y-85375275D01*
X93506520Y-85227696D01*
X93506520Y-85080117D01*
X94457585Y-85080117D01*
X95408651Y-85080117D01*
X95408651Y-85227696D01*
G37*
G36*
X96835248Y-85900000D02*
G01*
X96835248Y-86719884D01*
X96023563Y-86719884D01*
X95211878Y-86719884D01*
X95211878Y-86564106D01*
X95211878Y-86408328D01*
X95826791Y-86408328D01*
X96441704Y-86408328D01*
X96441704Y-85744222D01*
X96441704Y-85080117D01*
X96638476Y-85080117D01*
X96835248Y-85080117D01*
X96835248Y-85900000D01*
G37*
G36*
X99229168Y-86076919D02*
G01*
X99302435Y-86206553D01*
X99368883Y-86324185D01*
X99426644Y-86426507D01*
X99473849Y-86510212D01*
X99508631Y-86571994D01*
X99529123Y-86608544D01*
X99591171Y-86719884D01*
X99397942Y-86719576D01*
X99204713Y-86719267D01*
X99109848Y-86539201D01*
X99014984Y-86359135D01*
X98499737Y-86359135D01*
X97984490Y-86359135D01*
X97883970Y-86539510D01*
X97783450Y-86719884D01*
X97569957Y-86719884D01*
X97508867Y-86719603D01*
X97436982Y-86717847D01*
X97391600Y-86714148D01*
X97368885Y-86708122D01*
X97365003Y-86699387D01*
X97369646Y-86690600D01*
X97389270Y-86655439D01*
X97422748Y-86596238D01*
X97468580Y-86515631D01*
X97525263Y-86416248D01*
X97591296Y-86300722D01*
X97665177Y-86171685D01*
X97735043Y-86049840D01*
X98149795Y-86049840D01*
X98151922Y-86051616D01*
X98178256Y-86055569D01*
X98230830Y-86058968D01*
X98305025Y-86061626D01*
X98396223Y-86063358D01*
X98499804Y-86063977D01*
X98855279Y-86063977D01*
X98815024Y-85994287D01*
X98801899Y-85971122D01*
X98771988Y-85917249D01*
X98732572Y-85845501D01*
X98687239Y-85762416D01*
X98639576Y-85674532D01*
X98602329Y-85606514D01*
X98561344Y-85533875D01*
X98527428Y-85476207D01*
X98503339Y-85438181D01*
X98491837Y-85424468D01*
X98484867Y-85433496D01*
X98464556Y-85466867D01*
X98433914Y-85520046D01*
X98395715Y-85587960D01*
X98352734Y-85665536D01*
X98307746Y-85747702D01*
X98263525Y-85829386D01*
X98222845Y-85905514D01*
X98188480Y-85971014D01*
X98163205Y-86020813D01*
X98149795Y-86049840D01*
X97735043Y-86049840D01*
X97745405Y-86031768D01*
X97830478Y-85883603D01*
X98287415Y-85088315D01*
X98476020Y-85083727D01*
X98664624Y-85079139D01*
X99065850Y-85788171D01*
X99069643Y-85794874D01*
X99150948Y-85938591D01*
X99221850Y-86063977D01*
X99229168Y-86076919D01*
G37*
G36*
X102902388Y-85900000D02*
G01*
X102902388Y-86719884D01*
X102057908Y-86719884D01*
X101213428Y-86719884D01*
X101213428Y-86564106D01*
X101213428Y-86408328D01*
X101869335Y-86408328D01*
X102525242Y-86408328D01*
X102525242Y-86211556D01*
X102525242Y-86014784D01*
X102148095Y-86014784D01*
X101770949Y-86014784D01*
X101770949Y-85867205D01*
X101770949Y-85719626D01*
X102148095Y-85719626D01*
X102525242Y-85719626D01*
X102525242Y-85539251D01*
X102525242Y-85358877D01*
X101877534Y-85358877D01*
X101229825Y-85358877D01*
X101229825Y-85219497D01*
X101229825Y-85080117D01*
X102066107Y-85080117D01*
X102902388Y-85080117D01*
X102902388Y-85900000D01*
G37*
G36*
X104043862Y-85661956D02*
G01*
X104068677Y-85708514D01*
X104134899Y-85832153D01*
X104195906Y-85945192D01*
X104250012Y-86044564D01*
X104295533Y-86127204D01*
X104330784Y-86190046D01*
X104354081Y-86230024D01*
X104363738Y-86244073D01*
X104365942Y-86241781D01*
X104381836Y-86217259D01*
X104411220Y-86168298D01*
X104452355Y-86097908D01*
X104503504Y-86009097D01*
X104562930Y-85904875D01*
X104628895Y-85788251D01*
X104699662Y-85662234D01*
X105025430Y-85080117D01*
X105244294Y-85080117D01*
X105265799Y-85080182D01*
X105342627Y-85081586D01*
X105404092Y-85084542D01*
X105444384Y-85088683D01*
X105457693Y-85093639D01*
X105452491Y-85103190D01*
X105432231Y-85138914D01*
X105398117Y-85198525D01*
X105351631Y-85279446D01*
X105294256Y-85379099D01*
X105227477Y-85494910D01*
X105152777Y-85624302D01*
X105071640Y-85764698D01*
X104985549Y-85913523D01*
X104518872Y-86719884D01*
X104384574Y-86719884D01*
X104250276Y-86719884D01*
X103799320Y-85900000D01*
X103348365Y-85080117D01*
X103541253Y-85080117D01*
X103734140Y-85080117D01*
X104043862Y-85661956D01*
G37*
G36*
X106296707Y-85900000D02*
G01*
X106296707Y-86719884D01*
X106099935Y-86719884D01*
X105903163Y-86719884D01*
X105903163Y-85900000D01*
X105903163Y-85080117D01*
X106099935Y-85080117D01*
X106296707Y-85080117D01*
X106296707Y-85900000D01*
G37*
G36*
X108641575Y-85227696D02*
G01*
X108641575Y-85375275D01*
X108272627Y-85375275D01*
X107903680Y-85375275D01*
X107903680Y-86047579D01*
X107903680Y-86719884D01*
X107706907Y-86719884D01*
X107510135Y-86719884D01*
X107510135Y-86047579D01*
X107510135Y-85375275D01*
X107132989Y-85375275D01*
X106755842Y-85375275D01*
X106755842Y-85227696D01*
X106755842Y-85080117D01*
X107698709Y-85080117D01*
X108641575Y-85080117D01*
X108641575Y-85227696D01*
G37*
G36*
X109494254Y-85900000D02*
G01*
X109494254Y-86719884D01*
X109305681Y-86719884D01*
X109117108Y-86719884D01*
X109117108Y-85900000D01*
X109117108Y-85080117D01*
X109305681Y-85080117D01*
X109494254Y-85080117D01*
X109494254Y-85900000D01*
G37*
G36*
X111577103Y-85082096D02*
G01*
X111668685Y-85084161D01*
X111740943Y-85087700D01*
X111797052Y-85092915D01*
X111840186Y-85100006D01*
X111873521Y-85109174D01*
X111900233Y-85120619D01*
X111923496Y-85134541D01*
X111959304Y-85160839D01*
X111991496Y-85193040D01*
X112014453Y-85231659D01*
X112029683Y-85281963D01*
X112038694Y-85349218D01*
X112042994Y-85438691D01*
X112044093Y-85555649D01*
X112044093Y-85556885D01*
X112043658Y-85659920D01*
X112041982Y-85736146D01*
X112038486Y-85791483D01*
X112032592Y-85831849D01*
X112023722Y-85863163D01*
X112011297Y-85891345D01*
X112000206Y-85911622D01*
X111976564Y-85944177D01*
X111946189Y-85971174D01*
X111906187Y-85993117D01*
X111853665Y-86010508D01*
X111785727Y-86023850D01*
X111699481Y-86033648D01*
X111592031Y-86040404D01*
X111460485Y-86044622D01*
X111301947Y-86046805D01*
X111113525Y-86047455D01*
X110625694Y-86047579D01*
X110625694Y-86227954D01*
X110625694Y-86408328D01*
X111199612Y-86408328D01*
X111773531Y-86408328D01*
X111773531Y-86320874D01*
X111774195Y-86286704D01*
X111777335Y-86244741D01*
X111782183Y-86224768D01*
X111792637Y-86223765D01*
X111829776Y-86227701D01*
X111886702Y-86236925D01*
X111956274Y-86250385D01*
X112121713Y-86284653D01*
X112114320Y-86399783D01*
X112106560Y-86472213D01*
X112082490Y-86562203D01*
X112041325Y-86628311D01*
X111980266Y-86674455D01*
X111896514Y-86704551D01*
X111893605Y-86705099D01*
X111860483Y-86707786D01*
X111799222Y-86710329D01*
X111713705Y-86712652D01*
X111607813Y-86714678D01*
X111485425Y-86716330D01*
X111350423Y-86717532D01*
X111206688Y-86718206D01*
X111106292Y-86718407D01*
X110954456Y-86718350D01*
X110830267Y-86717684D01*
X110730450Y-86716304D01*
X110651730Y-86714104D01*
X110590831Y-86710981D01*
X110544481Y-86706828D01*
X110509402Y-86701542D01*
X110482322Y-86695018D01*
X110450934Y-86684333D01*
X110392518Y-86653071D01*
X110348274Y-86608333D01*
X110316617Y-86546376D01*
X110295965Y-86463457D01*
X110284734Y-86355831D01*
X110281343Y-86219755D01*
X110282002Y-86154656D01*
X110288731Y-86031868D01*
X110304013Y-85935842D01*
X110329429Y-85862835D01*
X110366564Y-85809103D01*
X110417001Y-85770904D01*
X110482322Y-85744492D01*
X110509389Y-85737949D01*
X110546616Y-85732312D01*
X110595971Y-85727898D01*
X110660896Y-85724575D01*
X110744838Y-85722216D01*
X110851239Y-85720691D01*
X110983544Y-85719871D01*
X111145197Y-85719626D01*
X111724338Y-85719626D01*
X111724338Y-85547450D01*
X111724338Y-85375275D01*
X111183215Y-85375275D01*
X110642091Y-85375275D01*
X110642091Y-85467216D01*
X110640524Y-85515372D01*
X110634029Y-85546019D01*
X110621594Y-85551383D01*
X110617263Y-85549967D01*
X110584786Y-85541504D01*
X110531914Y-85529088D01*
X110467706Y-85514869D01*
X110447718Y-85510487D01*
X110386966Y-85496174D01*
X110340940Y-85483852D01*
X110318344Y-85475797D01*
X110311313Y-85460894D01*
X110309460Y-85420860D01*
X110314530Y-85366205D01*
X110325133Y-85306417D01*
X110339877Y-85250984D01*
X110357374Y-85209394D01*
X110364660Y-85198446D01*
X110404709Y-85156663D01*
X110453518Y-85122710D01*
X110469483Y-85114838D01*
X110489265Y-85107252D01*
X110513656Y-85101177D01*
X110546181Y-85096402D01*
X110590363Y-85092714D01*
X110649724Y-85089900D01*
X110727788Y-85087748D01*
X110828077Y-85086045D01*
X110954115Y-85084578D01*
X111109425Y-85083135D01*
X111154656Y-85082748D01*
X111323264Y-85081591D01*
X111463021Y-85081306D01*
X111577103Y-85082096D01*
G37*
G36*
X114879198Y-85443223D02*
G01*
X114882382Y-85551807D01*
X114884523Y-85686565D01*
X114886235Y-85850807D01*
X114887156Y-85973962D01*
X114887367Y-86141360D01*
X114886050Y-86277187D01*
X114883191Y-86382168D01*
X114878774Y-86457032D01*
X114872785Y-86502505D01*
X114869468Y-86516317D01*
X114832808Y-86601009D01*
X114774380Y-86663372D01*
X114696898Y-86700354D01*
X114695070Y-86700799D01*
X114659344Y-86704849D01*
X114592715Y-86708243D01*
X114496899Y-86710955D01*
X114373609Y-86712954D01*
X114224559Y-86714213D01*
X114051464Y-86714703D01*
X113856036Y-86714395D01*
X113760579Y-86714053D01*
X113595832Y-86713363D01*
X113459382Y-86712540D01*
X113348248Y-86711455D01*
X113259447Y-86709979D01*
X113189995Y-86707982D01*
X113136911Y-86705336D01*
X113097213Y-86701910D01*
X113067916Y-86697576D01*
X113046039Y-86692205D01*
X113028599Y-86685666D01*
X113012614Y-86677832D01*
X112964061Y-86643239D01*
X112914228Y-86579445D01*
X112912941Y-86576977D01*
X112904445Y-86559084D01*
X112897570Y-86539273D01*
X112892144Y-86514111D01*
X112887996Y-86480168D01*
X112884955Y-86434014D01*
X112884080Y-86408328D01*
X113249322Y-86408328D01*
X113880632Y-86408328D01*
X114511943Y-86408328D01*
X114511943Y-85891801D01*
X114511943Y-85375275D01*
X113880632Y-85375275D01*
X113249322Y-85375275D01*
X113249322Y-85891801D01*
X113249322Y-86408328D01*
X112884080Y-86408328D01*
X112882850Y-86372218D01*
X112881510Y-86291349D01*
X112880765Y-86187977D01*
X112880443Y-86058671D01*
X112880374Y-85900000D01*
X112880378Y-85849002D01*
X112880596Y-85687007D01*
X112881536Y-85553748D01*
X112883726Y-85446054D01*
X112887696Y-85360755D01*
X112893973Y-85294681D01*
X112903087Y-85244660D01*
X112915567Y-85207523D01*
X112931940Y-85180098D01*
X112952737Y-85159215D01*
X112978485Y-85141703D01*
X113009713Y-85124392D01*
X113009942Y-85124270D01*
X113025878Y-85116075D01*
X113042326Y-85109231D01*
X113062222Y-85103616D01*
X113088498Y-85099108D01*
X113124091Y-85095586D01*
X113171936Y-85092927D01*
X113234966Y-85091012D01*
X113316118Y-85089717D01*
X113418326Y-85088921D01*
X113544524Y-85088504D01*
X113697648Y-85088342D01*
X113880632Y-85088315D01*
X113883361Y-85088315D01*
X114065915Y-85088343D01*
X114218649Y-85088507D01*
X114344498Y-85088929D01*
X114446397Y-85089731D01*
X114527280Y-85091033D01*
X114590082Y-85092958D01*
X114637739Y-85095628D01*
X114673184Y-85099163D01*
X114699353Y-85103685D01*
X114719181Y-85109317D01*
X114735602Y-85116178D01*
X114751552Y-85124392D01*
X114776134Y-85137932D01*
X114803808Y-85155990D01*
X114826142Y-85177049D01*
X114843750Y-85204419D01*
X114857246Y-85241411D01*
X114867244Y-85291336D01*
X114874356Y-85357503D01*
X114875360Y-85375275D01*
X114879198Y-85443223D01*
G37*
G36*
X117217559Y-85899541D02*
G01*
X117217559Y-86719884D01*
X117028986Y-86719884D01*
X116840413Y-86719884D01*
X116840413Y-86400884D01*
X116840413Y-86081884D01*
X116237798Y-86077030D01*
X116225934Y-86076935D01*
X116062789Y-86075528D01*
X115928902Y-86073850D01*
X115820955Y-86071385D01*
X115735628Y-86067621D01*
X115669603Y-86062044D01*
X115619564Y-86054140D01*
X115582190Y-86043395D01*
X115554165Y-86029296D01*
X115532170Y-86011330D01*
X115512887Y-85988982D01*
X115492997Y-85961739D01*
X115490909Y-85958792D01*
X115478074Y-85938620D01*
X115468590Y-85916494D01*
X115461856Y-85887273D01*
X115457274Y-85845817D01*
X115454245Y-85786987D01*
X115452169Y-85705642D01*
X115450449Y-85596643D01*
X115450313Y-85586792D01*
X115808994Y-85586792D01*
X115810014Y-85622989D01*
X115816117Y-85690367D01*
X115829620Y-85734573D01*
X115853320Y-85762288D01*
X115890015Y-85780192D01*
X115890341Y-85780303D01*
X115928752Y-85787403D01*
X115997732Y-85792969D01*
X116097831Y-85797024D01*
X116229596Y-85799589D01*
X116393576Y-85800689D01*
X116840413Y-85801614D01*
X116840413Y-85578930D01*
X116840413Y-85356245D01*
X116368980Y-85362415D01*
X116345272Y-85362741D01*
X116224583Y-85364897D01*
X116114592Y-85367662D01*
X116019718Y-85370868D01*
X115944382Y-85374346D01*
X115893002Y-85377927D01*
X115869996Y-85381444D01*
X115856386Y-85390830D01*
X115829995Y-85433596D01*
X115813672Y-85500686D01*
X115808994Y-85586792D01*
X115450313Y-85586792D01*
X115450145Y-85574664D01*
X115448971Y-85471014D01*
X115448994Y-85393898D01*
X115450677Y-85338019D01*
X115454480Y-85298082D01*
X115460868Y-85268788D01*
X115470302Y-85244842D01*
X115483244Y-85220946D01*
X115527775Y-85165795D01*
X115585991Y-85122560D01*
X115594987Y-85117996D01*
X115611543Y-85110825D01*
X115631122Y-85104875D01*
X115656700Y-85100008D01*
X115691254Y-85096089D01*
X115737762Y-85092982D01*
X115799201Y-85090550D01*
X115878549Y-85088657D01*
X115978782Y-85087168D01*
X116102879Y-85085945D01*
X116253816Y-85084854D01*
X116434570Y-85083757D01*
X117217559Y-85079200D01*
X117217559Y-85356245D01*
X117217559Y-85899541D01*
G37*
D11*
%TO.C,C8*%
X97810000Y-119653733D02*
X97810000Y-119946267D01*
X96790000Y-119653733D02*
X96790000Y-119946267D01*
D12*
%TO.C,Q1*%
X98462000Y-115900000D02*
X98462000Y-115900000D01*
X98562000Y-115900000D02*
X98562000Y-115900000D01*
X98562000Y-115900000D02*
G75*
G03*
X98462000Y-115900000I-50000J0D01*
G01*
X98462000Y-115900000D02*
G75*
G03*
X98562000Y-115900000I50000J0D01*
G01*
D11*
%TO.C,C6*%
X109365000Y-100798752D02*
X109365000Y-100276248D01*
X110835000Y-100798752D02*
X110835000Y-100276248D01*
%TO.C,Q3*%
X87350000Y-103640000D02*
X86700000Y-103640000D01*
X87350000Y-103640000D02*
X88000000Y-103640000D01*
X87350000Y-106760000D02*
X85675000Y-106760000D01*
X87350000Y-106760000D02*
X88000000Y-106760000D01*
%TO.C,R14*%
X86667621Y-102880000D02*
X86332379Y-102880000D01*
X86667621Y-102120000D02*
X86332379Y-102120000D01*
%TO.C,R24*%
X86332379Y-93820000D02*
X86667621Y-93820000D01*
X86332379Y-94580000D02*
X86667621Y-94580000D01*
%TO.C,R8*%
X91217500Y-102632379D02*
X91217500Y-102967621D01*
X90457500Y-102632379D02*
X90457500Y-102967621D01*
%TO.C,C7*%
X93046267Y-116810000D02*
X92753733Y-116810000D01*
X93046267Y-115790000D02*
X92753733Y-115790000D01*
%TO.C,R4*%
X91217500Y-100232379D02*
X91217500Y-100567621D01*
X90457500Y-100232379D02*
X90457500Y-100567621D01*
%TO.C,D2*%
X98365000Y-120865000D02*
X100825000Y-120865000D01*
X98365000Y-122335000D02*
X98365000Y-120865000D01*
X100825000Y-122335000D02*
X98365000Y-122335000D01*
%TO.C,R6*%
X107532379Y-96620000D02*
X107867621Y-96620000D01*
X107532379Y-97380000D02*
X107867621Y-97380000D01*
%TO.C,R5*%
X88820000Y-120067621D02*
X88820000Y-119732379D01*
X89580000Y-120067621D02*
X89580000Y-119732379D01*
%TO.C,Q4*%
X87350000Y-96640000D02*
X86700000Y-96640000D01*
X87350000Y-96640000D02*
X88000000Y-96640000D01*
X87350000Y-99760000D02*
X85675000Y-99760000D01*
X87350000Y-99760000D02*
X88000000Y-99760000D01*
%TO.C,R10*%
X90780000Y-119732379D02*
X90780000Y-120067621D01*
X90020000Y-119732379D02*
X90020000Y-120067621D01*
%TO.C,R21*%
X86332379Y-100720000D02*
X86667621Y-100720000D01*
X86332379Y-101480000D02*
X86667621Y-101480000D01*
%TO.C,C5*%
X101765000Y-101261252D02*
X101765000Y-100738748D01*
X103235000Y-101261252D02*
X103235000Y-100738748D01*
D12*
%TO.C,Q2*%
X101662000Y-108400000D02*
X101662000Y-108400000D01*
X101562000Y-108400000D02*
X101562000Y-108400000D01*
X101562000Y-108400000D02*
G75*
G03*
X101662000Y-108400000I50000J0D01*
G01*
X101662000Y-108400000D02*
G75*
G03*
X101562000Y-108400000I-50000J0D01*
G01*
D11*
%TO.C,R3*%
X104734879Y-95420000D02*
X105070121Y-95420000D01*
X104734879Y-96180000D02*
X105070121Y-96180000D01*
%TO.C,R9*%
X100167621Y-120280000D02*
X99832379Y-120280000D01*
X100167621Y-119520000D02*
X99832379Y-119520000D01*
%TO.C,D1*%
X110050000Y-112390000D02*
X110050000Y-119400000D01*
X106750000Y-112390000D02*
X110050000Y-112390000D01*
X106750000Y-112390000D02*
X106750000Y-119400000D01*
%TO.C,R25*%
X86667621Y-95980000D02*
X86332379Y-95980000D01*
X86667621Y-95220000D02*
X86332379Y-95220000D01*
D13*
%TO.C,IC3*%
X91300000Y-117550000D02*
X91300000Y-118750000D01*
X94350000Y-119100000D02*
X91450000Y-119100000D01*
X91450000Y-119100000D02*
X91450000Y-119700000D01*
X94350000Y-119700000D02*
X94350000Y-119100000D01*
X91450000Y-119700000D02*
X94350000Y-119700000D01*
D11*
%TO.C,C3*%
X94598752Y-98735000D02*
X94076248Y-98735000D01*
X94598752Y-97265000D02*
X94076248Y-97265000D01*
%TO.C,C2*%
X94461252Y-106235000D02*
X93938748Y-106235000D01*
X94461252Y-104765000D02*
X93938748Y-104765000D01*
D13*
%TO.C,IC5*%
X105300000Y-98750000D02*
X105300000Y-98750000D01*
X105300000Y-98750000D02*
X105300000Y-98750000D01*
X105300000Y-98850000D02*
X105300000Y-98850000D01*
D12*
X104800000Y-99250000D02*
X104800000Y-99250000D01*
X104800000Y-99250000D02*
X104800000Y-101250000D01*
X107800000Y-99350000D02*
X107800000Y-99350000D01*
X107800000Y-99350000D02*
X107800000Y-101250000D01*
X107800000Y-101250000D02*
X107800000Y-99350000D01*
X107800000Y-101250000D02*
X107800000Y-101250000D01*
X104800000Y-101250000D02*
X104800000Y-99250000D01*
X104800000Y-101250000D02*
X104800000Y-101250000D01*
D13*
X105300000Y-98850000D02*
G75*
G03*
X105300000Y-98750000I0J50000D01*
G01*
X105300000Y-98850000D02*
G75*
G03*
X105300000Y-98750000I0J50000D01*
G01*
X105300000Y-98750000D02*
G75*
G03*
X105300000Y-98850000I0J-50000D01*
G01*
%TO.C,IC6*%
X92537500Y-102800000D02*
X92537500Y-102800000D01*
X92537500Y-102800000D02*
X92537500Y-102800000D01*
X92637500Y-102800000D02*
X92637500Y-102800000D01*
D12*
X93037500Y-103300000D02*
X93037500Y-103300000D01*
X93037500Y-103300000D02*
X95037500Y-103300000D01*
X93137500Y-100300000D02*
X93137500Y-100300000D01*
X93137500Y-100300000D02*
X95037500Y-100300000D01*
X95037500Y-100300000D02*
X93137500Y-100300000D01*
X95037500Y-100300000D02*
X95037500Y-100300000D01*
X95037500Y-103300000D02*
X93037500Y-103300000D01*
X95037500Y-103300000D02*
X95037500Y-103300000D01*
D13*
X92637500Y-102800000D02*
G75*
G03*
X92537500Y-102800000I-50000J0D01*
G01*
X92637500Y-102800000D02*
G75*
G03*
X92537500Y-102800000I-50000J0D01*
G01*
X92537500Y-102800000D02*
G75*
G03*
X92637500Y-102800000I50000J0D01*
G01*
D11*
%TO.C,L1*%
X106661252Y-105210000D02*
X106138748Y-105210000D01*
X106661252Y-102990000D02*
X106138748Y-102990000D01*
%TO.C,R1*%
X111680000Y-118532379D02*
X111680000Y-118867621D01*
X110920000Y-118532379D02*
X110920000Y-118867621D01*
%TO.C,R2*%
X107867621Y-96180000D02*
X107532379Y-96180000D01*
X107867621Y-95420000D02*
X107532379Y-95420000D01*
%TO.C,L2*%
X98947500Y-101538748D02*
X98947500Y-102061252D01*
X96727500Y-101538748D02*
X96727500Y-102061252D01*
%TO.C,R7*%
X105070121Y-97380000D02*
X104734879Y-97380000D01*
X105070121Y-96620000D02*
X104734879Y-96620000D01*
%TO.C,C4*%
X94598752Y-96535000D02*
X94076248Y-96535000D01*
X94598752Y-95065000D02*
X94076248Y-95065000D01*
%TD*%
M02*
