%TF.GenerationSoftware,KiCad,Pcbnew,7.0.6*%
%TF.CreationDate,2023-07-14T02:37:10+02:00*%
%TF.ProjectId,rrr,7272722e-6b69-4636-9164-5f7063625858,rev?*%
%TF.SameCoordinates,Original*%
%TF.FileFunction,Legend,Top*%
%TF.FilePolarity,Positive*%
%FSLAX46Y46*%
G04 Gerber Fmt 4.6, Leading zero omitted, Abs format (unit mm)*
G04 Created by KiCad (PCBNEW 7.0.6) date 2023-07-14 02:37:10*
%MOMM*%
%LPD*%
G01*
G04 APERTURE LIST*
%ADD10C,0.150000*%
%ADD11C,0.153000*%
%ADD12C,0.120000*%
%ADD13C,0.100000*%
%ADD14C,0.250000*%
%ADD15C,0.127000*%
%ADD16C,0.200000*%
G04 APERTURE END LIST*
D10*
X118736779Y-107269819D02*
X118736779Y-106269819D01*
X118736779Y-106269819D02*
X119117731Y-106269819D01*
X119117731Y-106269819D02*
X119212969Y-106317438D01*
X119212969Y-106317438D02*
X119260588Y-106365057D01*
X119260588Y-106365057D02*
X119308207Y-106460295D01*
X119308207Y-106460295D02*
X119308207Y-106603152D01*
X119308207Y-106603152D02*
X119260588Y-106698390D01*
X119260588Y-106698390D02*
X119212969Y-106746009D01*
X119212969Y-106746009D02*
X119117731Y-106793628D01*
X119117731Y-106793628D02*
X118736779Y-106793628D01*
X120212969Y-106269819D02*
X119736779Y-106269819D01*
X119736779Y-106269819D02*
X119689160Y-106746009D01*
X119689160Y-106746009D02*
X119736779Y-106698390D01*
X119736779Y-106698390D02*
X119832017Y-106650771D01*
X119832017Y-106650771D02*
X120070112Y-106650771D01*
X120070112Y-106650771D02*
X120165350Y-106698390D01*
X120165350Y-106698390D02*
X120212969Y-106746009D01*
X120212969Y-106746009D02*
X120260588Y-106841247D01*
X120260588Y-106841247D02*
X120260588Y-107079342D01*
X120260588Y-107079342D02*
X120212969Y-107174580D01*
X120212969Y-107174580D02*
X120165350Y-107222200D01*
X120165350Y-107222200D02*
X120070112Y-107269819D01*
X120070112Y-107269819D02*
X119832017Y-107269819D01*
X119832017Y-107269819D02*
X119736779Y-107222200D01*
X119736779Y-107222200D02*
X119689160Y-107174580D01*
X121212969Y-106317438D02*
X121117731Y-106269819D01*
X121117731Y-106269819D02*
X120974874Y-106269819D01*
X120974874Y-106269819D02*
X120832017Y-106317438D01*
X120832017Y-106317438D02*
X120736779Y-106412676D01*
X120736779Y-106412676D02*
X120689160Y-106507914D01*
X120689160Y-106507914D02*
X120641541Y-106698390D01*
X120641541Y-106698390D02*
X120641541Y-106841247D01*
X120641541Y-106841247D02*
X120689160Y-107031723D01*
X120689160Y-107031723D02*
X120736779Y-107126961D01*
X120736779Y-107126961D02*
X120832017Y-107222200D01*
X120832017Y-107222200D02*
X120974874Y-107269819D01*
X120974874Y-107269819D02*
X121070112Y-107269819D01*
X121070112Y-107269819D02*
X121212969Y-107222200D01*
X121212969Y-107222200D02*
X121260588Y-107174580D01*
X121260588Y-107174580D02*
X121260588Y-106841247D01*
X121260588Y-106841247D02*
X121070112Y-106841247D01*
X112959819Y-114941792D02*
X112483628Y-115275125D01*
X112959819Y-115513220D02*
X111959819Y-115513220D01*
X111959819Y-115513220D02*
X111959819Y-115132268D01*
X111959819Y-115132268D02*
X112007438Y-115037030D01*
X112007438Y-115037030D02*
X112055057Y-114989411D01*
X112055057Y-114989411D02*
X112150295Y-114941792D01*
X112150295Y-114941792D02*
X112293152Y-114941792D01*
X112293152Y-114941792D02*
X112388390Y-114989411D01*
X112388390Y-114989411D02*
X112436009Y-115037030D01*
X112436009Y-115037030D02*
X112483628Y-115132268D01*
X112483628Y-115132268D02*
X112483628Y-115513220D01*
X112436009Y-114513220D02*
X112436009Y-114179887D01*
X112959819Y-114037030D02*
X112959819Y-114513220D01*
X112959819Y-114513220D02*
X111959819Y-114513220D01*
X111959819Y-114513220D02*
X111959819Y-114037030D01*
X112912200Y-113656077D02*
X112959819Y-113513220D01*
X112959819Y-113513220D02*
X112959819Y-113275125D01*
X112959819Y-113275125D02*
X112912200Y-113179887D01*
X112912200Y-113179887D02*
X112864580Y-113132268D01*
X112864580Y-113132268D02*
X112769342Y-113084649D01*
X112769342Y-113084649D02*
X112674104Y-113084649D01*
X112674104Y-113084649D02*
X112578866Y-113132268D01*
X112578866Y-113132268D02*
X112531247Y-113179887D01*
X112531247Y-113179887D02*
X112483628Y-113275125D01*
X112483628Y-113275125D02*
X112436009Y-113465601D01*
X112436009Y-113465601D02*
X112388390Y-113560839D01*
X112388390Y-113560839D02*
X112340771Y-113608458D01*
X112340771Y-113608458D02*
X112245533Y-113656077D01*
X112245533Y-113656077D02*
X112150295Y-113656077D01*
X112150295Y-113656077D02*
X112055057Y-113608458D01*
X112055057Y-113608458D02*
X112007438Y-113560839D01*
X112007438Y-113560839D02*
X111959819Y-113465601D01*
X111959819Y-113465601D02*
X111959819Y-113227506D01*
X111959819Y-113227506D02*
X112007438Y-113084649D01*
X112436009Y-112656077D02*
X112436009Y-112322744D01*
X112959819Y-112179887D02*
X112959819Y-112656077D01*
X112959819Y-112656077D02*
X111959819Y-112656077D01*
X111959819Y-112656077D02*
X111959819Y-112179887D01*
X111959819Y-111894172D02*
X111959819Y-111322744D01*
X112959819Y-111608458D02*
X111959819Y-111608458D01*
X114046009Y-115179887D02*
X114093628Y-115037030D01*
X114093628Y-115037030D02*
X114141247Y-114989411D01*
X114141247Y-114989411D02*
X114236485Y-114941792D01*
X114236485Y-114941792D02*
X114379342Y-114941792D01*
X114379342Y-114941792D02*
X114474580Y-114989411D01*
X114474580Y-114989411D02*
X114522200Y-115037030D01*
X114522200Y-115037030D02*
X114569819Y-115132268D01*
X114569819Y-115132268D02*
X114569819Y-115513220D01*
X114569819Y-115513220D02*
X113569819Y-115513220D01*
X113569819Y-115513220D02*
X113569819Y-115179887D01*
X113569819Y-115179887D02*
X113617438Y-115084649D01*
X113617438Y-115084649D02*
X113665057Y-115037030D01*
X113665057Y-115037030D02*
X113760295Y-114989411D01*
X113760295Y-114989411D02*
X113855533Y-114989411D01*
X113855533Y-114989411D02*
X113950771Y-115037030D01*
X113950771Y-115037030D02*
X113998390Y-115084649D01*
X113998390Y-115084649D02*
X114046009Y-115179887D01*
X114046009Y-115179887D02*
X114046009Y-115513220D01*
X113569819Y-114322744D02*
X113569819Y-114132268D01*
X113569819Y-114132268D02*
X113617438Y-114037030D01*
X113617438Y-114037030D02*
X113712676Y-113941792D01*
X113712676Y-113941792D02*
X113903152Y-113894173D01*
X113903152Y-113894173D02*
X114236485Y-113894173D01*
X114236485Y-113894173D02*
X114426961Y-113941792D01*
X114426961Y-113941792D02*
X114522200Y-114037030D01*
X114522200Y-114037030D02*
X114569819Y-114132268D01*
X114569819Y-114132268D02*
X114569819Y-114322744D01*
X114569819Y-114322744D02*
X114522200Y-114417982D01*
X114522200Y-114417982D02*
X114426961Y-114513220D01*
X114426961Y-114513220D02*
X114236485Y-114560839D01*
X114236485Y-114560839D02*
X113903152Y-114560839D01*
X113903152Y-114560839D02*
X113712676Y-114513220D01*
X113712676Y-114513220D02*
X113617438Y-114417982D01*
X113617438Y-114417982D02*
X113569819Y-114322744D01*
X113569819Y-113275125D02*
X113569819Y-113084649D01*
X113569819Y-113084649D02*
X113617438Y-112989411D01*
X113617438Y-112989411D02*
X113712676Y-112894173D01*
X113712676Y-112894173D02*
X113903152Y-112846554D01*
X113903152Y-112846554D02*
X114236485Y-112846554D01*
X114236485Y-112846554D02*
X114426961Y-112894173D01*
X114426961Y-112894173D02*
X114522200Y-112989411D01*
X114522200Y-112989411D02*
X114569819Y-113084649D01*
X114569819Y-113084649D02*
X114569819Y-113275125D01*
X114569819Y-113275125D02*
X114522200Y-113370363D01*
X114522200Y-113370363D02*
X114426961Y-113465601D01*
X114426961Y-113465601D02*
X114236485Y-113513220D01*
X114236485Y-113513220D02*
X113903152Y-113513220D01*
X113903152Y-113513220D02*
X113712676Y-113465601D01*
X113712676Y-113465601D02*
X113617438Y-113370363D01*
X113617438Y-113370363D02*
X113569819Y-113275125D01*
X113569819Y-112560839D02*
X113569819Y-111989411D01*
X114569819Y-112275125D02*
X113569819Y-112275125D01*
X112436779Y-107369819D02*
X112436779Y-106369819D01*
X112436779Y-106369819D02*
X112817731Y-106369819D01*
X112817731Y-106369819D02*
X112912969Y-106417438D01*
X112912969Y-106417438D02*
X112960588Y-106465057D01*
X112960588Y-106465057D02*
X113008207Y-106560295D01*
X113008207Y-106560295D02*
X113008207Y-106703152D01*
X113008207Y-106703152D02*
X112960588Y-106798390D01*
X112960588Y-106798390D02*
X112912969Y-106846009D01*
X112912969Y-106846009D02*
X112817731Y-106893628D01*
X112817731Y-106893628D02*
X112436779Y-106893628D01*
X113341541Y-106369819D02*
X113579636Y-107369819D01*
X113579636Y-107369819D02*
X113770112Y-106655533D01*
X113770112Y-106655533D02*
X113960588Y-107369819D01*
X113960588Y-107369819D02*
X114198684Y-106369819D01*
X114579636Y-107369819D02*
X114579636Y-106369819D01*
X114579636Y-106369819D02*
X114912969Y-107084104D01*
X114912969Y-107084104D02*
X115246302Y-106369819D01*
X115246302Y-106369819D02*
X115246302Y-107369819D01*
X115674874Y-106465057D02*
X115722493Y-106417438D01*
X115722493Y-106417438D02*
X115817731Y-106369819D01*
X115817731Y-106369819D02*
X116055826Y-106369819D01*
X116055826Y-106369819D02*
X116151064Y-106417438D01*
X116151064Y-106417438D02*
X116198683Y-106465057D01*
X116198683Y-106465057D02*
X116246302Y-106560295D01*
X116246302Y-106560295D02*
X116246302Y-106655533D01*
X116246302Y-106655533D02*
X116198683Y-106798390D01*
X116198683Y-106798390D02*
X115627255Y-107369819D01*
X115627255Y-107369819D02*
X116246302Y-107369819D01*
X85836779Y-99419819D02*
X85836779Y-98419819D01*
X85836779Y-98419819D02*
X86217731Y-98419819D01*
X86217731Y-98419819D02*
X86312969Y-98467438D01*
X86312969Y-98467438D02*
X86360588Y-98515057D01*
X86360588Y-98515057D02*
X86408207Y-98610295D01*
X86408207Y-98610295D02*
X86408207Y-98753152D01*
X86408207Y-98753152D02*
X86360588Y-98848390D01*
X86360588Y-98848390D02*
X86312969Y-98896009D01*
X86312969Y-98896009D02*
X86217731Y-98943628D01*
X86217731Y-98943628D02*
X85836779Y-98943628D01*
X87027255Y-98943628D02*
X87027255Y-99419819D01*
X86693922Y-98419819D02*
X87027255Y-98943628D01*
X87027255Y-98943628D02*
X87360588Y-98419819D01*
X88265350Y-99419819D02*
X87932017Y-98943628D01*
X87693922Y-99419819D02*
X87693922Y-98419819D01*
X87693922Y-98419819D02*
X88074874Y-98419819D01*
X88074874Y-98419819D02*
X88170112Y-98467438D01*
X88170112Y-98467438D02*
X88217731Y-98515057D01*
X88217731Y-98515057D02*
X88265350Y-98610295D01*
X88265350Y-98610295D02*
X88265350Y-98753152D01*
X88265350Y-98753152D02*
X88217731Y-98848390D01*
X88217731Y-98848390D02*
X88170112Y-98896009D01*
X88170112Y-98896009D02*
X88074874Y-98943628D01*
X88074874Y-98943628D02*
X87693922Y-98943628D01*
X88646303Y-98515057D02*
X88693922Y-98467438D01*
X88693922Y-98467438D02*
X88789160Y-98419819D01*
X88789160Y-98419819D02*
X89027255Y-98419819D01*
X89027255Y-98419819D02*
X89122493Y-98467438D01*
X89122493Y-98467438D02*
X89170112Y-98515057D01*
X89170112Y-98515057D02*
X89217731Y-98610295D01*
X89217731Y-98610295D02*
X89217731Y-98705533D01*
X89217731Y-98705533D02*
X89170112Y-98848390D01*
X89170112Y-98848390D02*
X88598684Y-99419819D01*
X88598684Y-99419819D02*
X89217731Y-99419819D01*
X88686779Y-120769819D02*
X88686779Y-119769819D01*
X88686779Y-119769819D02*
X88924874Y-119769819D01*
X88924874Y-119769819D02*
X89067731Y-119817438D01*
X89067731Y-119817438D02*
X89162969Y-119912676D01*
X89162969Y-119912676D02*
X89210588Y-120007914D01*
X89210588Y-120007914D02*
X89258207Y-120198390D01*
X89258207Y-120198390D02*
X89258207Y-120341247D01*
X89258207Y-120341247D02*
X89210588Y-120531723D01*
X89210588Y-120531723D02*
X89162969Y-120626961D01*
X89162969Y-120626961D02*
X89067731Y-120722200D01*
X89067731Y-120722200D02*
X88924874Y-120769819D01*
X88924874Y-120769819D02*
X88686779Y-120769819D01*
X89686779Y-120769819D02*
X89686779Y-119769819D01*
X90115350Y-120722200D02*
X90258207Y-120769819D01*
X90258207Y-120769819D02*
X90496302Y-120769819D01*
X90496302Y-120769819D02*
X90591540Y-120722200D01*
X90591540Y-120722200D02*
X90639159Y-120674580D01*
X90639159Y-120674580D02*
X90686778Y-120579342D01*
X90686778Y-120579342D02*
X90686778Y-120484104D01*
X90686778Y-120484104D02*
X90639159Y-120388866D01*
X90639159Y-120388866D02*
X90591540Y-120341247D01*
X90591540Y-120341247D02*
X90496302Y-120293628D01*
X90496302Y-120293628D02*
X90305826Y-120246009D01*
X90305826Y-120246009D02*
X90210588Y-120198390D01*
X90210588Y-120198390D02*
X90162969Y-120150771D01*
X90162969Y-120150771D02*
X90115350Y-120055533D01*
X90115350Y-120055533D02*
X90115350Y-119960295D01*
X90115350Y-119960295D02*
X90162969Y-119865057D01*
X90162969Y-119865057D02*
X90210588Y-119817438D01*
X90210588Y-119817438D02*
X90305826Y-119769819D01*
X90305826Y-119769819D02*
X90543921Y-119769819D01*
X90543921Y-119769819D02*
X90686778Y-119817438D01*
X112386779Y-92469819D02*
X112386779Y-91469819D01*
X112386779Y-91469819D02*
X112767731Y-91469819D01*
X112767731Y-91469819D02*
X112862969Y-91517438D01*
X112862969Y-91517438D02*
X112910588Y-91565057D01*
X112910588Y-91565057D02*
X112958207Y-91660295D01*
X112958207Y-91660295D02*
X112958207Y-91803152D01*
X112958207Y-91803152D02*
X112910588Y-91898390D01*
X112910588Y-91898390D02*
X112862969Y-91946009D01*
X112862969Y-91946009D02*
X112767731Y-91993628D01*
X112767731Y-91993628D02*
X112386779Y-91993628D01*
X113291541Y-91469819D02*
X113529636Y-92469819D01*
X113529636Y-92469819D02*
X113720112Y-91755533D01*
X113720112Y-91755533D02*
X113910588Y-92469819D01*
X113910588Y-92469819D02*
X114148684Y-91469819D01*
X114529636Y-92469819D02*
X114529636Y-91469819D01*
X114529636Y-91469819D02*
X114862969Y-92184104D01*
X114862969Y-92184104D02*
X115196302Y-91469819D01*
X115196302Y-91469819D02*
X115196302Y-92469819D01*
X116196302Y-92469819D02*
X115624874Y-92469819D01*
X115910588Y-92469819D02*
X115910588Y-91469819D01*
X115910588Y-91469819D02*
X115815350Y-91612676D01*
X115815350Y-91612676D02*
X115720112Y-91707914D01*
X115720112Y-91707914D02*
X115624874Y-91755533D01*
X82886779Y-115438866D02*
X83648684Y-115438866D01*
X85836779Y-106319819D02*
X85836779Y-105319819D01*
X85836779Y-105319819D02*
X86217731Y-105319819D01*
X86217731Y-105319819D02*
X86312969Y-105367438D01*
X86312969Y-105367438D02*
X86360588Y-105415057D01*
X86360588Y-105415057D02*
X86408207Y-105510295D01*
X86408207Y-105510295D02*
X86408207Y-105653152D01*
X86408207Y-105653152D02*
X86360588Y-105748390D01*
X86360588Y-105748390D02*
X86312969Y-105796009D01*
X86312969Y-105796009D02*
X86217731Y-105843628D01*
X86217731Y-105843628D02*
X85836779Y-105843628D01*
X87027255Y-105843628D02*
X87027255Y-106319819D01*
X86693922Y-105319819D02*
X87027255Y-105843628D01*
X87027255Y-105843628D02*
X87360588Y-105319819D01*
X88265350Y-106319819D02*
X87932017Y-105843628D01*
X87693922Y-106319819D02*
X87693922Y-105319819D01*
X87693922Y-105319819D02*
X88074874Y-105319819D01*
X88074874Y-105319819D02*
X88170112Y-105367438D01*
X88170112Y-105367438D02*
X88217731Y-105415057D01*
X88217731Y-105415057D02*
X88265350Y-105510295D01*
X88265350Y-105510295D02*
X88265350Y-105653152D01*
X88265350Y-105653152D02*
X88217731Y-105748390D01*
X88217731Y-105748390D02*
X88170112Y-105796009D01*
X88170112Y-105796009D02*
X88074874Y-105843628D01*
X88074874Y-105843628D02*
X87693922Y-105843628D01*
X89217731Y-106319819D02*
X88646303Y-106319819D01*
X88932017Y-106319819D02*
X88932017Y-105319819D01*
X88932017Y-105319819D02*
X88836779Y-105462676D01*
X88836779Y-105462676D02*
X88741541Y-105557914D01*
X88741541Y-105557914D02*
X88646303Y-105605533D01*
D11*
X82888752Y-112888710D02*
X83650657Y-112888710D01*
X83269704Y-113269663D02*
X83269704Y-112507758D01*
D12*
%TO.C,C1*%
X85540000Y-108515835D02*
X85540000Y-108284165D01*
X86260000Y-108515835D02*
X86260000Y-108284165D01*
%TO.C,R18*%
X97367621Y-111380000D02*
X97032379Y-111380000D01*
X97367621Y-110620000D02*
X97032379Y-110620000D01*
%TO.C,R15*%
X111370000Y-86567621D02*
X111370000Y-86232379D01*
X112130000Y-86567621D02*
X112130000Y-86232379D01*
%TO.C,C13*%
X98184165Y-105540000D02*
X98415835Y-105540000D01*
X98184165Y-106260000D02*
X98415835Y-106260000D01*
%TO.C,C16*%
X86240000Y-103715835D02*
X86240000Y-103484165D01*
X86960000Y-103715835D02*
X86960000Y-103484165D01*
%TO.C,J7*%
X85000000Y-106775000D02*
X85000000Y-105525000D01*
X84710000Y-106485000D02*
X84710000Y-100515000D01*
X84710000Y-100515000D02*
X77090000Y-100515000D01*
X84700000Y-106475000D02*
X84700000Y-105725000D01*
X84700000Y-105725000D02*
X82900000Y-105725000D01*
X84700000Y-104225000D02*
X83950000Y-104225000D01*
X83950000Y-104225000D02*
X83950000Y-101275000D01*
X83950000Y-101275000D02*
X80900000Y-101275000D01*
X83750000Y-106775000D02*
X85000000Y-106775000D01*
X82900000Y-106475000D02*
X84700000Y-106475000D01*
X82900000Y-105725000D02*
X82900000Y-106475000D01*
X81400000Y-106475000D02*
X81400000Y-105725000D01*
X81400000Y-105725000D02*
X80400000Y-105725000D01*
X80400000Y-106475000D02*
X81400000Y-106475000D01*
X80400000Y-105725000D02*
X80400000Y-106475000D01*
X78900000Y-106475000D02*
X78900000Y-105725000D01*
X78900000Y-105725000D02*
X77100000Y-105725000D01*
X77850000Y-104225000D02*
X77850000Y-101275000D01*
X77850000Y-101275000D02*
X80900000Y-101275000D01*
X77100000Y-106475000D02*
X78900000Y-106475000D01*
X77100000Y-105725000D02*
X77100000Y-106475000D01*
X77100000Y-104225000D02*
X77850000Y-104225000D01*
X77090000Y-106485000D02*
X84710000Y-106485000D01*
X77090000Y-100515000D02*
X77090000Y-106485000D01*
%TO.C,R22*%
X103720000Y-113567621D02*
X103720000Y-113232379D01*
X104480000Y-113567621D02*
X104480000Y-113232379D01*
%TO.C,R23*%
X115780000Y-86229879D02*
X115780000Y-86565121D01*
X115020000Y-86229879D02*
X115020000Y-86565121D01*
%TO.C,R19*%
X103320000Y-108170121D02*
X103320000Y-107834879D01*
X104080000Y-108170121D02*
X104080000Y-107834879D01*
%TO.C,C11*%
X88960000Y-85784165D02*
X88960000Y-86015835D01*
X88240000Y-85784165D02*
X88240000Y-86015835D01*
%TO.C,U2*%
X102250000Y-105845000D02*
X110250000Y-105845000D01*
X106250000Y-99625000D02*
X110250000Y-99625000D01*
%TO.C,R13*%
X113330000Y-86232379D02*
X113330000Y-86567621D01*
X112570000Y-86232379D02*
X112570000Y-86567621D01*
%TO.C,C15*%
X88751665Y-100672500D02*
X88983335Y-100672500D01*
X88751665Y-101392500D02*
X88983335Y-101392500D01*
%TO.C,U4*%
X102560000Y-109700000D02*
X102560000Y-107900000D01*
X102560000Y-109700000D02*
X102560000Y-110500000D01*
X99440000Y-109700000D02*
X99440000Y-108900000D01*
X99440000Y-109700000D02*
X99440000Y-110500000D01*
%TO.C,R12*%
X92267621Y-107380000D02*
X91932379Y-107380000D01*
X92267621Y-106620000D02*
X91932379Y-106620000D01*
D13*
%TO.C,U1*%
X89360000Y-102207500D02*
X90000000Y-102207500D01*
X87800000Y-102207500D02*
X88440000Y-102207500D01*
X87800000Y-102207500D02*
X87800000Y-102687500D01*
X90000000Y-104427500D02*
X90000000Y-104907500D01*
X87800000Y-104427500D02*
X87800000Y-104907500D01*
X89360000Y-104907500D02*
X90000000Y-104907500D01*
X87800000Y-104907500D02*
X88440000Y-104907500D01*
D12*
%TO.C,C18*%
X95540000Y-105448335D02*
X95540000Y-105216665D01*
X96260000Y-105448335D02*
X96260000Y-105216665D01*
%TO.C,C10*%
X85846267Y-88910000D02*
X85553733Y-88910000D01*
X85846267Y-87890000D02*
X85553733Y-87890000D01*
D14*
%TO.C,IC2*%
X91725000Y-105807500D02*
G75*
G03*
X91725000Y-105807500I-125000J0D01*
G01*
D12*
%TO.C,J8*%
X85000000Y-99775000D02*
X85000000Y-98525000D01*
X84710000Y-99485000D02*
X84710000Y-93515000D01*
X84710000Y-93515000D02*
X77090000Y-93515000D01*
X84700000Y-99475000D02*
X84700000Y-98725000D01*
X84700000Y-98725000D02*
X82900000Y-98725000D01*
X84700000Y-97225000D02*
X83950000Y-97225000D01*
X83950000Y-97225000D02*
X83950000Y-94275000D01*
X83950000Y-94275000D02*
X80900000Y-94275000D01*
X83750000Y-99775000D02*
X85000000Y-99775000D01*
X82900000Y-99475000D02*
X84700000Y-99475000D01*
X82900000Y-98725000D02*
X82900000Y-99475000D01*
X81400000Y-99475000D02*
X81400000Y-98725000D01*
X81400000Y-98725000D02*
X80400000Y-98725000D01*
X80400000Y-99475000D02*
X81400000Y-99475000D01*
X80400000Y-98725000D02*
X80400000Y-99475000D01*
X78900000Y-99475000D02*
X78900000Y-98725000D01*
X78900000Y-98725000D02*
X77100000Y-98725000D01*
X77850000Y-97225000D02*
X77850000Y-94275000D01*
X77850000Y-94275000D02*
X80900000Y-94275000D01*
X77100000Y-99475000D02*
X78900000Y-99475000D01*
X77100000Y-98725000D02*
X77100000Y-99475000D01*
X77100000Y-97225000D02*
X77850000Y-97225000D01*
X77090000Y-99485000D02*
X84710000Y-99485000D01*
X77090000Y-93515000D02*
X77090000Y-99485000D01*
%TO.C,R26*%
X113820000Y-86567621D02*
X113820000Y-86232379D01*
X114580000Y-86567621D02*
X114580000Y-86232379D01*
D15*
%TO.C,U3*%
X99285000Y-103695000D02*
X99285000Y-103205000D01*
X97285000Y-103695000D02*
X97285000Y-103205000D01*
D16*
X97835000Y-105320000D02*
G75*
G03*
X97835000Y-105320000I-100000J0D01*
G01*
D12*
%TO.C,J5*%
X122850000Y-99250000D02*
X122850000Y-98000000D01*
X122560000Y-98960000D02*
X122560000Y-92990000D01*
X122560000Y-92990000D02*
X112440000Y-92990000D01*
X122550000Y-98950000D02*
X122550000Y-98200000D01*
X122550000Y-98200000D02*
X120750000Y-98200000D01*
X122550000Y-96700000D02*
X121800000Y-96700000D01*
X121800000Y-96700000D02*
X121800000Y-93750000D01*
X121800000Y-93750000D02*
X117500000Y-93750000D01*
X121600000Y-99250000D02*
X122850000Y-99250000D01*
X120750000Y-98950000D02*
X122550000Y-98950000D01*
X120750000Y-98200000D02*
X120750000Y-98950000D01*
X119250000Y-98950000D02*
X119250000Y-98200000D01*
X119250000Y-98200000D02*
X115750000Y-98200000D01*
X115750000Y-98950000D02*
X119250000Y-98950000D01*
X115750000Y-98200000D02*
X115750000Y-98950000D01*
X114250000Y-98950000D02*
X114250000Y-98200000D01*
X114250000Y-98200000D02*
X112450000Y-98200000D01*
X113200000Y-96700000D02*
X113200000Y-93750000D01*
X113200000Y-93750000D02*
X117500000Y-93750000D01*
X112450000Y-98950000D02*
X114250000Y-98950000D01*
X112450000Y-98200000D02*
X112450000Y-98950000D01*
X112450000Y-96700000D02*
X113200000Y-96700000D01*
X112440000Y-98960000D02*
X122560000Y-98960000D01*
X112440000Y-92990000D02*
X112440000Y-98960000D01*
D14*
%TO.C,IC4*%
X87250000Y-106950000D02*
G75*
G03*
X87250000Y-106950000I-125000J0D01*
G01*
D15*
%TO.C,J1*%
X95505000Y-117850000D02*
X95505000Y-119530000D01*
X104445000Y-117850000D02*
X104445000Y-119530000D01*
D16*
X96875000Y-114700000D02*
G75*
G03*
X96875000Y-114700000I-100000J0D01*
G01*
D12*
%TO.C,J3*%
X94170000Y-108390000D02*
X94170000Y-109660000D01*
X92900000Y-108390000D02*
X94170000Y-108390000D01*
X93280000Y-110770000D02*
X93280000Y-111157071D01*
X92520000Y-110770000D02*
X92520000Y-111157071D01*
X93280000Y-113242929D02*
X93280000Y-113640000D01*
X92520000Y-113242929D02*
X92520000Y-113640000D01*
X94230000Y-113640000D02*
X91570000Y-113640000D01*
X91570000Y-113640000D02*
X91570000Y-116300000D01*
X94230000Y-116300000D02*
X94230000Y-113640000D01*
X93280000Y-116300000D02*
X93280000Y-122300000D01*
X93220000Y-116300000D02*
X93220000Y-122300000D01*
X93100000Y-116300000D02*
X93100000Y-122300000D01*
X92980000Y-116300000D02*
X92980000Y-122300000D01*
X92860000Y-116300000D02*
X92860000Y-122300000D01*
X92740000Y-116300000D02*
X92740000Y-122300000D01*
X92620000Y-116300000D02*
X92620000Y-122300000D01*
X91570000Y-116300000D02*
X94230000Y-116300000D01*
X93280000Y-122300000D02*
X92520000Y-122300000D01*
X92520000Y-122300000D02*
X92520000Y-116300000D01*
%TO.C,C12*%
X84661252Y-86535000D02*
X84138748Y-86535000D01*
X84661252Y-85065000D02*
X84138748Y-85065000D01*
%TO.C,R11*%
X95467621Y-107380000D02*
X95132379Y-107380000D01*
X95467621Y-106620000D02*
X95132379Y-106620000D01*
%TO.C,R20*%
X102320000Y-113567621D02*
X102320000Y-113232379D01*
X103080000Y-113567621D02*
X103080000Y-113232379D01*
%TO.C,C17*%
X96260000Y-102616665D02*
X96260000Y-102848335D01*
X95540000Y-102616665D02*
X95540000Y-102848335D01*
%TO.C,R16*%
X111370000Y-89367621D02*
X111370000Y-89032379D01*
X112130000Y-89367621D02*
X112130000Y-89032379D01*
%TO.C,J2*%
X90775000Y-110200000D02*
X89525000Y-110200000D01*
X90485000Y-110490000D02*
X84515000Y-110490000D01*
X84515000Y-110490000D02*
X84515000Y-118110000D01*
X90475000Y-110500000D02*
X89725000Y-110500000D01*
X89725000Y-110500000D02*
X89725000Y-112300000D01*
X88225000Y-110500000D02*
X88225000Y-111250000D01*
X88225000Y-111250000D02*
X85275000Y-111250000D01*
X85275000Y-111250000D02*
X85275000Y-114300000D01*
X90775000Y-111450000D02*
X90775000Y-110200000D01*
X90475000Y-112300000D02*
X90475000Y-110500000D01*
X89725000Y-112300000D02*
X90475000Y-112300000D01*
X90475000Y-113800000D02*
X89725000Y-113800000D01*
X89725000Y-113800000D02*
X89725000Y-114800000D01*
X90475000Y-114800000D02*
X90475000Y-113800000D01*
X89725000Y-114800000D02*
X90475000Y-114800000D01*
X90475000Y-116300000D02*
X89725000Y-116300000D01*
X89725000Y-116300000D02*
X89725000Y-118100000D01*
X88225000Y-117350000D02*
X85275000Y-117350000D01*
X85275000Y-117350000D02*
X85275000Y-114300000D01*
X90475000Y-118100000D02*
X90475000Y-116300000D01*
X89725000Y-118100000D02*
X90475000Y-118100000D01*
X88225000Y-118100000D02*
X88225000Y-117350000D01*
X90485000Y-118110000D02*
X90485000Y-110490000D01*
X84515000Y-118110000D02*
X90485000Y-118110000D01*
%TO.C,C14*%
X111660000Y-102584165D02*
X111660000Y-102815835D01*
X110940000Y-102584165D02*
X110940000Y-102815835D01*
%TO.C,J6*%
X122850000Y-106075000D02*
X122850000Y-104825000D01*
X122560000Y-105785000D02*
X122560000Y-99815000D01*
X122560000Y-99815000D02*
X112440000Y-99815000D01*
X122550000Y-105775000D02*
X122550000Y-105025000D01*
X122550000Y-105025000D02*
X120750000Y-105025000D01*
X122550000Y-103525000D02*
X121800000Y-103525000D01*
X121800000Y-103525000D02*
X121800000Y-100575000D01*
X121800000Y-100575000D02*
X117500000Y-100575000D01*
X121600000Y-106075000D02*
X122850000Y-106075000D01*
X120750000Y-105775000D02*
X122550000Y-105775000D01*
X120750000Y-105025000D02*
X120750000Y-105775000D01*
X119250000Y-105775000D02*
X119250000Y-105025000D01*
X119250000Y-105025000D02*
X115750000Y-105025000D01*
X115750000Y-105775000D02*
X119250000Y-105775000D01*
X115750000Y-105025000D02*
X115750000Y-105775000D01*
X114250000Y-105775000D02*
X114250000Y-105025000D01*
X114250000Y-105025000D02*
X112450000Y-105025000D01*
X113200000Y-103525000D02*
X113200000Y-100575000D01*
X113200000Y-100575000D02*
X117500000Y-100575000D01*
X112450000Y-105775000D02*
X114250000Y-105775000D01*
X112450000Y-105025000D02*
X112450000Y-105775000D01*
X112450000Y-103525000D02*
X113200000Y-103525000D01*
X112440000Y-105785000D02*
X122560000Y-105785000D01*
X112440000Y-99815000D02*
X112440000Y-105785000D01*
D13*
%TO.C,IC1*%
X90000000Y-85300000D02*
X90000000Y-85300000D01*
X90000000Y-85400000D02*
X90000000Y-85400000D01*
D16*
X93000000Y-98200000D02*
X107000000Y-98200000D01*
D13*
X90000000Y-85400000D02*
G75*
G03*
X90000000Y-85300000I0J50000D01*
G01*
X90000000Y-85300000D02*
G75*
G03*
X90000000Y-85400000I0J-50000D01*
G01*
D12*
%TO.C,R17*%
X112520000Y-109267621D02*
X112520000Y-108932379D01*
X113280000Y-109267621D02*
X113280000Y-108932379D01*
%TO.C,J4*%
X110845000Y-107290000D02*
X110845000Y-108560000D01*
X109575000Y-107290000D02*
X110845000Y-107290000D01*
X107415000Y-109602929D02*
X107415000Y-110057071D01*
X106655000Y-109602929D02*
X106655000Y-110057071D01*
X109955000Y-109670000D02*
X109955000Y-110057071D01*
X109195000Y-109670000D02*
X109195000Y-110057071D01*
X109955000Y-112142929D02*
X109955000Y-112540000D01*
X109195000Y-112142929D02*
X109195000Y-112540000D01*
X107415000Y-112142929D02*
X107415000Y-112540000D01*
X106655000Y-112142929D02*
X106655000Y-112540000D01*
X110905000Y-112540000D02*
X105705000Y-112540000D01*
X108305000Y-112540000D02*
X108305000Y-115200000D01*
X105705000Y-112540000D02*
X105705000Y-115200000D01*
X110905000Y-115200000D02*
X110905000Y-112540000D01*
X109955000Y-115200000D02*
X109955000Y-121200000D01*
X109895000Y-115200000D02*
X109895000Y-121200000D01*
X109775000Y-115200000D02*
X109775000Y-121200000D01*
X109655000Y-115200000D02*
X109655000Y-121200000D01*
X109535000Y-115200000D02*
X109535000Y-121200000D01*
X109415000Y-115200000D02*
X109415000Y-121200000D01*
X109295000Y-115200000D02*
X109295000Y-121200000D01*
X107415000Y-115200000D02*
X107415000Y-121200000D01*
X105705000Y-115200000D02*
X110905000Y-115200000D01*
X109955000Y-121200000D02*
X109195000Y-121200000D01*
X109195000Y-121200000D02*
X109195000Y-115200000D01*
X107415000Y-121200000D02*
X106655000Y-121200000D01*
X106655000Y-121200000D02*
X106655000Y-115200000D01*
%TO.C,R27*%
X87580000Y-85732379D02*
X87580000Y-86067621D01*
X86820000Y-85732379D02*
X86820000Y-86067621D01*
%TD*%
M02*
