M48
; DRILL file {KiCad 7.0.6} date Fri Jul 14 02:37:56 2023
; FORMAT={3:3/ absolute / metric / suppress leading zeros}
; #@! TF.CreationDate,2023-07-14T02:37:56+02:00
; #@! TF.GenerationSoftware,Kicad,Pcbnew,7.0.6
; #@! TF.FileFunction,MixedPlating,1,4
FMAT,2
METRIC,TZ
; #@! TA.AperFunction,Plated,PTH,ViaDrill
T1C0.300
; #@! TA.AperFunction,Plated,PTH,ViaDrill
T2C0.400
; #@! TA.AperFunction,Plated,PTH,ComponentDrill
T3C0.400
; #@! TA.AperFunction,Plated,PTH,ComponentDrill
T4C0.600
; #@! TA.AperFunction,Plated,PTH,ComponentDrill
T5C0.950
; #@! TA.AperFunction,Plated,PTH,ComponentDrill
T6C1.000
; #@! TA.AperFunction,Plated,PTH,ComponentDrill
T7C2.200
; #@! TA.AperFunction,NonPlated,NPTH,ComponentDrill
T8C0.600
%
G90
G05
T1
X78050Y-106500
X82150Y-106750
X82200Y-114000
X84350Y-116750
X84600Y-112550
X84750Y-109550
X84850Y-96600
X84850Y-102900
X84900Y-101100
X85100Y-87100
X85176Y-104100
X85700Y-87100
X86300Y-87100
X86800Y-93300
X87450Y-119350
X87850Y-110600
X88050Y-96700
X88250Y-94400
X88300Y-101800
X88350Y-99500
X88600Y-87300
X89000Y-89100
X89042Y-89942
X89400Y-101800
X89476Y-106300
X89650Y-117150
X90550Y-110500
X90900Y-98700
X91000Y-105200
X91200Y-119300
X91450Y-121900
X91600Y-98700
X91700Y-101950
X91700Y-102600
X91800Y-99800
X91850Y-105550
X92000Y-106250
X92150Y-100600
X92300Y-98700
X92850Y-103900
X92850Y-104500
X92900Y-122200
X93450Y-103350
X94250Y-122350
X94500Y-91400
X94500Y-92100
X94500Y-92800
X94500Y-93500
X94650Y-120700
X94700Y-88100
X94700Y-88900
X94700Y-89699
X94750Y-118150
X94800Y-99800
X95150Y-111000
X95650Y-108350
X96436Y-104700
X97000Y-98300
X97500Y-112400
X98100Y-122400
X98400Y-118850
X98500Y-120700
X99500Y-117600
X99700Y-99100
X99950Y-103300
X100000Y-88350
X100188Y-93988
X100200Y-96000
X100200Y-97000
X100212Y-94988
X100400Y-89850
X100400Y-90950
X100400Y-92050
X101000Y-110700
X101000Y-117600
X101038Y-107562
X101500Y-89850
X101500Y-90950
X101500Y-92050
X101500Y-112800
X101600Y-119900
X101900Y-98700
X101900Y-99400
X101900Y-118850
X102500Y-105700
X102600Y-89850
X102600Y-90950
X102600Y-92050
X102600Y-98700
X102600Y-99400
X102900Y-110700
X103000Y-103900
X103100Y-118200
X103200Y-114900
X103400Y-88350
X104412Y-98112
X104600Y-91700
X106050Y-97950
X106050Y-98550
X106200Y-117500
X106350Y-105800
X106350Y-106400
X106350Y-107000
X106550Y-89000
X106550Y-89800
X106600Y-92926
X107400Y-88200
X107550Y-90600
X107550Y-98150
X108300Y-98650
X108850Y-98300
X110350Y-91250
X110600Y-88000
X110850Y-92600
X111200Y-98700
X111200Y-99400
X111300Y-101200
X111300Y-104200
X111400Y-91000
X111600Y-107700
X111900Y-98700
X111900Y-99400
X111950Y-94700
X112400Y-118100
X112650Y-92700
X112700Y-91300
X112900Y-101100
X112900Y-101800
X112900Y-102500
X112900Y-103200
X113250Y-95850
X113600Y-91300
X113800Y-94200
X113800Y-109700
X114300Y-105000
X114350Y-108200
X114450Y-92250
X114450Y-94800
X114450Y-99450
X115400Y-93450
X115450Y-98200
X115550Y-100750
X115950Y-106350
X122400Y-106300
T2
X114200Y-87900
T3
X79350Y-90000
X79350Y-110000
X79833Y-88833
X79833Y-91167
X79833Y-108833
X79833Y-111167
X81000Y-88350
X81000Y-91650
X81000Y-108350
X81000Y-111650
X82167Y-88833
X82167Y-91167
X82167Y-108833
X82167Y-111167
X82650Y-90000
X82650Y-110000
X117350Y-90000
X117350Y-110000
X117833Y-88833
X117833Y-91167
X117833Y-108833
X117833Y-111167
X119000Y-88350
X119000Y-91650
X119000Y-108350
X119000Y-111650
X120167Y-88833
X120167Y-91167
X120167Y-108833
X120167Y-111167
X120650Y-90000
X120650Y-110000
T5
X115000Y-96500
X115000Y-103325
X117500Y-96500
X117500Y-103325
X120000Y-96500
X120000Y-103325
T6
X79650Y-97025
X79650Y-104025
X82150Y-97025
X82150Y-104025
X88025Y-113050
X88025Y-115550
X92900Y-109660
X92900Y-112200
X107035Y-108560
X107035Y-111100
X109575Y-108560
X109575Y-111100
T7
X81000Y-90000
X81000Y-110000
X119000Y-90000
X119000Y-110000
T8
X97085Y-117020
X102865Y-117020
T4
G00X95650Y-115980
M15
G01X95650Y-117080
M16
G05
G00X95650Y-120300
M15
G01X95650Y-121100
M16
G05
G00X104300Y-115980
M15
G01X104300Y-117080
M16
G05
G00X104300Y-120300
M15
G01X104300Y-121100
M16
G05
T0
M30
